<svg width="16" height="16" viewBox="0 0 16 16" fill="none" xmlns="http://www.w3.org/2000/svg">
<path d="M9.33335 8.49992C9.33335 7.85559 8.7364 7.33325 8.00002 7.33325C7.26364 7.33325 6.66669 7.85559 6.66669 8.49992C6.66669 9.14425 7.26364 9.66659 8.00002 9.66659C8.7364 9.66659 9.33335 10.1889 9.33335 10.8333C9.33335 11.4776 8.7364 11.9999 8.00002 11.9999C7.26364 11.9999 6.66669 11.4776 6.66669 10.8333" stroke="#6C727F" stroke-linecap="round"/>
<path d="M8 6.33325V7.33325" stroke="#6C727F" stroke-linecap="round" stroke-linejoin="round"/>
<path d="M8 12V13" stroke="#6C727F" stroke-linecap="round" stroke-linejoin="round"/>
<path d="M3.61255 7.82903C4.24205 5.94054 6.00934 4.66675 7.99998 4.66675V4.66675C9.99061 4.66675 11.7579 5.94054 12.3874 7.82903L12.5585 8.34219C13.5956 11.4536 11.2797 14.6667 7.99998 14.6667V14.6667C4.72025 14.6667 2.40436 11.4536 3.4415 8.34219L3.61255 7.82903Z" stroke="#6C727F" stroke-linejoin="round"/>
<path d="M9.39057 4.66659L6.60939 4.66658L5.67533 3.59522C4.75971 2.545 5.82788 0.975236 7.16469 1.40648L7.78321 1.60601C7.92403 1.65144 8.07593 1.65144 8.21675 1.60601L8.83527 1.40648C10.1721 0.975236 11.2403 2.545 10.3246 3.59522L9.39057 4.66659Z" stroke="#6C727F" stroke-linejoin="round"/>
</svg>
