<svg width="22" height="22" viewBox="0 0 22 22" fill="none" xmlns="http://www.w3.org/2000/svg">
<path d="M20 10.9995V16.3995C20 18.3877 18.3882 19.9995 16.4 19.9995H5.6C3.61177 19.9995 2 18.3877 2 16.3995V5.59951C2 3.61129 3.61178 1.99951 5.6 1.99951H11M14.3177 3.81999C14.3177 3.81999 14.3177 5.10725 15.605 6.39452C16.8923 7.68179 18.1795 7.68179 18.1795 7.68179M8.43921 14.5901L11.1425 14.2039C11.5324 14.1482 11.8938 13.9676 12.1723 13.689L19.4668 6.39452C20.1777 5.68358 20.1777 4.53092 19.4668 3.81998L18.1795 2.53272C17.4686 1.82178 16.3159 1.82178 15.605 2.53272L8.31048 9.82723C8.03195 10.1058 7.85128 10.4671 7.79557 10.857L7.40939 13.5603C7.32357 14.161 7.83848 14.6759 8.43921 14.5901Z" stroke="#000929" stroke-width="1.5" stroke-linecap="round"/>
</svg>
