<svg width="245" height="251" viewBox="0 0 245 251" fill="none" xmlns="http://www.w3.org/2000/svg">
<path d="M233.186 60.7296L229.424 59.9133L228.572 56.1514C228.537 56.0094 228.43 55.9385 228.288 55.9385C228.146 55.9385 228.04 56.0449 228.004 56.1514L227.153 59.9488L223.391 60.836C223.249 60.8715 223.178 60.978 223.178 61.1199C223.178 61.2619 223.284 61.3684 223.426 61.4039L227.188 62.2202L228.04 65.982C228.075 66.124 228.182 66.195 228.324 66.195C228.466 66.195 228.572 66.0885 228.608 65.982L229.459 62.1846L233.221 61.2974C233.363 61.2619 233.434 61.1554 233.434 61.0135C233.434 60.8715 233.328 60.7296 233.186 60.7296Z" fill="#061533"/>
<path d="M13.1489 115.384L9.38695 114.568L8.53523 110.806C8.49974 110.664 8.39325 110.593 8.25129 110.593C8.10933 110.593 8.00284 110.699 7.96735 110.806L7.11563 114.603L3.35368 115.49C3.21172 115.526 3.14075 115.632 3.14075 115.774C3.14075 115.916 3.24724 116.023 3.3892 116.058L7.15111 116.874L8.00288 120.636C8.03837 120.778 8.14481 120.849 8.28677 120.849C8.42873 120.849 8.53522 120.743 8.57071 120.636L9.42247 116.839L13.1844 115.952C13.3263 115.916 13.3973 115.81 13.3973 115.668C13.3973 115.526 13.2909 115.384 13.1489 115.384Z" fill="#061533"/>
<path d="M214.163 45.6112L212.211 45.1854L211.785 43.2334C211.785 43.1625 211.715 43.127 211.644 43.127C211.573 43.127 211.502 43.1625 211.502 43.2334L211.04 45.1854L209.088 45.6468C209.017 45.6468 208.982 45.7177 208.982 45.7887C208.982 45.8597 209.017 45.9306 209.088 45.9306L211.04 46.3566L211.466 48.3085C211.466 48.3795 211.537 48.4149 211.608 48.4149C211.679 48.4149 211.75 48.3795 211.75 48.3085L212.211 46.3566L214.163 45.8952C214.234 45.8952 214.27 45.8241 214.27 45.7532C214.27 45.6822 214.234 45.6467 214.163 45.6112Z" fill="#061533"/>
<path d="M10.5581 10.3694L10.8065 4.22967C10.913 1.21303 13.9651 -0.774347 16.7688 0.290348C19.5725 1.35504 20.4952 4.86854 18.5788 7.21086L14.6749 11.931L10.5581 10.3694Z" fill="#F01543"/>
<path d="M8.89007 14.7705L4.98619 19.4906C3.06974 21.7974 3.99247 25.3109 6.79616 26.4111C9.59986 27.4758 12.652 25.4884 12.7584 22.4718L13.0069 16.332L8.89007 14.7705Z" fill="#F01543"/>
<path d="M6.40576 11.363L8.32218 15.4088C9.10295 17.0413 11.0549 17.7511 12.6874 16.9704L16.6268 15.1249L14.7103 11.079C13.9296 9.44648 11.9777 8.73672 10.3451 9.5175L6.40576 11.363Z" fill="#061533"/>
<path d="M7.91691 11.9132C8.50535 10.3756 7.73591 8.65213 6.1983 8.0637C4.66069 7.47526 2.93723 8.2447 2.34879 9.78231C1.76035 11.3199 2.52977 13.0434 4.06738 13.6319C5.605 14.2203 7.32847 13.4508 7.91691 11.9132Z" fill="#061533"/>
<path d="M2.12114 6.5086L0.710205 8.10352L2.73045 9.89072L4.14139 8.29581L2.12114 6.5086Z" fill="#061533"/>
<path d="M0.0142927 9.87501L0 12.0044L2.69726 12.0225L2.71155 9.89311L0.0142927 9.87501Z" fill="#061533"/>
<path d="M69.5066 144.273L67.4127 143.847C67.6257 142.889 67.8032 141.895 67.9806 140.937L70.0745 141.327C69.897 142.321 69.7196 143.315 69.5066 144.273ZM70.9617 136.039L68.8678 135.72C69.1163 133.945 69.3647 132.206 69.5421 130.467L71.6715 130.68C71.4586 132.455 71.2456 134.265 70.9617 136.039ZM72.0974 125.392L69.968 125.25C70.0745 123.476 70.1455 121.701 70.1455 119.998H72.2749C72.2749 121.737 72.2039 123.547 72.0974 125.392ZM70.039 114.745C69.9325 112.971 69.7906 111.196 69.5776 109.528L71.707 109.28C71.92 111.019 72.0974 112.829 72.2039 114.639L70.039 114.745ZM68.6904 104.347C68.3355 102.608 67.8741 100.904 67.3773 99.3073L69.4002 98.6684C69.9325 100.336 70.3584 102.111 70.7488 103.921L68.6904 104.347ZM49.2065 95.1194C48.5677 95.1194 47.9288 95.084 47.29 95.0485L47.432 92.9191C47.9998 92.9546 48.6386 92.99 49.171 92.99C50.3067 92.99 51.4068 92.9191 52.4715 92.7416L52.8264 94.8355C51.6553 95.0129 50.4486 95.1194 49.2065 95.1194ZM65.6028 94.4096C64.893 92.7771 64.1122 91.251 63.2604 89.7604L65.1059 88.6957C65.9931 90.2218 66.8094 91.8544 67.5547 93.5579L65.6028 94.4096ZM41.7536 93.7708C39.9081 92.9545 38.3466 91.8189 37.1045 90.4348L38.7015 89.0152C39.7662 90.1864 41.0793 91.1446 42.6409 91.8189L41.7536 93.7708ZM58.1854 93.203L57.2981 91.2865C59.2501 90.3993 60.6342 89.2991 61.4505 88.5538L62.8701 90.1153C61.9828 90.9671 60.3857 92.1738 58.1854 93.203ZM60.3858 85.5017C59.3211 84.1176 58.1499 82.8399 56.9077 81.7043L58.3628 80.1427C59.6759 81.3849 60.9181 82.7335 62.0538 84.1886L60.3858 85.5017ZM66.1706 85.5017L64.2896 84.4725C65.1414 82.9109 65.8512 81.3494 66.419 79.7523L68.4065 80.4976C67.8386 82.1657 67.0578 83.8336 66.1706 85.5017ZM34.3717 85.3953C34.1943 84.7919 34.0523 84.1176 33.9459 83.4433C33.8749 82.9819 33.8394 82.4851 33.8394 82.0237C33.8394 81.172 33.9458 80.3557 34.1943 79.5394L36.2527 80.1427C36.0752 80.7461 36.0042 81.3849 36.0042 82.0237C36.0042 82.3786 36.0398 82.769 36.0752 83.1239C36.1817 83.6917 36.2882 84.2595 36.4301 84.7919L34.3717 85.3953ZM52.8619 78.5102C50.5551 77.0196 48.8871 76.4163 48.7451 76.3454C48.6386 76.3099 48.5321 76.2744 48.4257 76.2389L48.9935 74.1804C49.1355 74.2159 49.242 74.2514 49.3839 74.2869C49.4904 74.3224 51.4068 74.9613 54.0686 76.7003L52.8619 78.5102ZM38.9144 76.5938L37.8143 74.7837C39.3403 73.861 41.2212 73.3642 43.4216 73.3642H43.4926V75.4935H43.4216C41.6116 75.4935 40.0856 75.884 38.9144 76.5938ZM69.897 75.2096L67.8032 74.8193C68.1226 73.1158 68.3 71.4122 68.3 69.7087H70.4294C70.4294 71.5542 70.2519 73.3996 69.897 75.2096ZM67.8741 64.6337C67.5902 63.0012 67.1643 61.2977 66.5965 59.6651L68.6194 58.9553C69.2227 60.7298 69.6841 62.5043 70.0035 64.2433L67.8741 64.6337ZM64.5381 54.9095C63.7928 53.4189 62.9055 51.9284 61.9118 50.4378L63.6863 49.2666C64.7155 50.8282 65.6383 52.3897 66.4545 53.9512L64.5381 54.9095ZM58.8242 46.2144C57.7595 44.9013 56.5883 43.5882 55.3462 42.2751L56.9077 40.82C58.1854 42.1686 59.392 43.5172 60.4922 44.8658L58.8242 46.2144ZM51.6198 38.5841C50.3776 37.413 49.029 36.2773 47.6449 35.1061L48.9935 33.4736C50.4131 34.6448 51.7617 35.816 53.0394 37.0226L51.6198 38.5841ZM43.4926 31.8766C42.1085 30.8474 40.6534 29.8182 39.1983 28.789L40.405 27.0145C41.8956 28.0437 43.3861 29.1083 44.7702 30.1375L43.4926 31.8766ZM34.7621 25.9143C33.2715 24.9915 31.7455 24.0688 30.2194 23.1816L31.2841 21.3361C32.8457 22.2234 34.3717 23.146 35.8978 24.1043L34.7621 25.9143ZM25.5703 20.6263C22.6956 19.1003 20.8501 18.284 20.8501 18.284L21.7373 16.332C21.8083 16.3675 23.6538 17.1838 26.5994 18.7454L25.5703 20.6263Z" fill="#061533"/>
<path d="M175.195 74.8547L166.607 71.9801L165.755 47.5631C176.26 39.5779 170.369 33.8995 170.369 33.8995L169.907 22.7202H128.029C120.222 68.2537 140.061 63.8884 140.061 63.8884L139.564 73.3642L129.023 78.0843L129.449 96.3971H176.651L175.195 74.8547Z" fill="white"/>
<path d="M177.786 97.426H128.42L127.959 77.3743L138.535 72.6541L138.925 65.0593C137.186 65.0948 134.027 64.7045 131.153 61.9717C124.906 56.0095 123.487 42.7362 126.965 22.5425L127.107 21.6553H170.937L171.398 33.4734C172.001 34.1832 173.208 36.0287 173.031 38.6194C172.853 41.778 170.759 44.9721 166.82 48.0597L167.636 71.1991L176.189 74.0737L177.786 97.426ZM130.478 95.2967H175.515L174.166 75.6353L165.542 72.7251L164.655 47.0305L165.081 46.7111C168.736 43.9429 170.759 41.1037 170.901 38.4774C171.043 36.0996 169.624 34.6446 169.588 34.6446L169.269 34.3606L168.843 23.7847H128.846C124.942 47.3854 128.704 56.7192 132.572 60.4457C135.944 63.6752 139.741 62.8945 139.777 62.859L141.125 62.5751L140.522 74.1093L130.017 78.7939L130.478 95.2967Z" fill="#061533"/>
<path d="M151.879 25.1331C151.879 25.1331 142.9 30.9535 127.639 25.1331L126.894 30.4921C126.894 30.4921 120.151 25.701 121.961 16.793C121.961 16.793 122.883 11.1856 132.288 10.0854C132.288 10.0854 136.263 1.92281 144.994 5.36533C144.994 5.36533 151.524 1.39042 157.876 7.35271C157.876 7.35271 163.484 7.17527 164.407 11.718C164.407 11.718 173.669 10.6178 176.189 19.1708C176.189 19.1708 177.644 30.0662 169.836 34.7864C169.836 34.7864 164.229 31.1664 161.674 38.7612L158.409 39.684L157.699 34.6089C157.699 34.5734 152.801 33.1184 151.879 25.1331Z" fill="#061533"/>
<path d="M130.194 44.3687C126.539 44.3687 123.593 41.423 123.593 37.7676C123.593 34.1121 126.539 31.1665 130.194 31.1665C133.85 31.1665 136.795 34.1121 136.795 37.7676C136.795 41.3875 133.85 44.3687 130.194 44.3687ZM130.194 32.5506C127.32 32.5506 125.013 34.8929 125.013 37.7321C125.013 40.6068 127.355 42.9136 130.194 42.9136C133.034 42.9136 135.376 40.5713 135.376 37.7321C135.376 34.8929 133.069 32.5506 130.194 32.5506Z" fill="#061533"/>
<path d="M144.355 44.3687C140.699 44.3687 137.754 41.423 137.754 37.7676C137.754 34.1121 140.699 31.1665 144.355 31.1665C148.01 31.1665 150.956 34.1121 150.956 37.7676C150.956 41.3875 148.01 44.3687 144.355 44.3687ZM144.355 32.5506C141.48 32.5506 139.173 34.8929 139.173 37.7321C139.173 40.6068 141.516 42.9136 144.355 42.9136C147.229 42.9136 149.536 40.5713 149.536 37.7321C149.536 34.8929 147.229 32.5506 144.355 32.5506Z" fill="#061533"/>
<path d="M130.301 40.1806C131.202 40.1806 131.933 39.4497 131.933 38.5481C131.933 37.6465 131.202 36.9155 130.301 36.9155C129.399 36.9155 128.668 37.6465 128.668 38.5481C128.668 39.4497 129.399 40.1806 130.301 40.1806Z" fill="#061533"/>
<path d="M144.355 40.287C145.256 40.287 145.987 39.5561 145.987 38.6545C145.987 37.7528 145.256 37.022 144.355 37.022C143.453 37.022 142.722 37.7528 142.722 38.6545C142.722 39.5561 143.453 40.287 144.355 40.287Z" fill="#061533"/>
<path d="M158.144 35.1632L150.103 36.3433L150.309 37.7478L158.35 36.5677L158.144 35.1632Z" fill="#061533"/>
<path d="M139.28 48.698L133.14 48.0592L136.973 36.667L138.322 37.1284L135.056 46.8526L139.422 47.2784L139.28 48.698Z" fill="#061533"/>
<path d="M135.553 31.8761C135.518 31.8406 132.679 29.6402 127.107 30.3145L126.929 28.8949C133.176 28.1142 136.334 30.634 136.476 30.7405L135.553 31.8761L136.015 31.3083L135.553 31.8761Z" fill="#061533"/>
<path d="M139.919 31.6992L138.854 30.7764C138.889 30.7409 143.042 26.0208 149.82 30.2796L149.075 31.4862C143.326 27.8662 140.025 31.5217 139.919 31.6992Z" fill="#061533"/>
<path d="M134.595 54.8382C133.956 54.1994 134.063 53.1347 134.808 52.6379C135.269 52.3185 135.873 52.07 136.618 52.0346C138.322 51.9991 140.557 53.0638 141.587 53.6316C141.871 53.809 141.942 54.1994 141.693 54.4124C140.522 55.4771 136.937 57.287 134.595 54.8382Z" fill="#061533"/>
<path d="M132.998 76.1322C132.998 76.1322 134.418 93.1673 153.582 92.4575C153.582 92.4575 169.375 90.8605 173.989 74.5352C173.989 74.5352 195.105 79.8231 212.247 88.9795C218.671 92.422 223.355 98.3488 225.201 105.376L240.177 155.984L202.203 156.339L197.767 148.354L204.51 238.853H106.913L104.429 164.679L73.1978 160.775L91.0136 105.056C93.6754 96.7163 99.8151 89.9377 107.836 86.4242L132.998 76.1322Z" fill="#F01543"/>
<path d="M205.646 239.918H105.884L103.4 165.637L71.8136 161.698L90.0199 104.737C92.7881 96.113 99.1053 89.086 107.41 85.466L133.956 74.6061L134.063 76.0612C134.134 76.7355 135.66 92.0671 153.511 91.4283C154.469 91.3218 168.665 89.4763 172.96 74.2867L173.244 73.293L174.237 73.5414C174.45 73.5769 195.673 78.9713 212.744 88.0922C219.38 91.6412 224.313 97.8519 226.23 105.163L241.597 157.049L201.564 157.439L199.187 153.145L205.646 239.918ZM107.942 237.788H203.374L196.347 143.598L202.842 155.274L238.758 154.955L224.207 105.731C222.432 98.9521 217.89 93.2382 211.75 89.9377C196.986 82.0589 179.064 77.0194 174.699 75.8482C172.072 83.9754 166.678 88.3406 162.561 90.5765C157.912 93.0963 153.866 93.5222 153.689 93.5222H153.618C153.227 93.5222 152.837 93.5577 152.447 93.5577C142.829 93.5577 137.789 89.0504 135.234 85.1465C133.317 82.2364 132.501 79.2907 132.182 77.6227L108.262 87.3824C100.56 90.7539 94.6335 97.3196 92.0783 105.34L74.6528 159.853L105.529 163.721L107.942 237.788Z" fill="#061533"/>
<path d="M179.135 133.625H44.9833V238.675H179.135V133.625Z" fill="#FE724C"/>
<path d="M180.2 239.74H43.9186V132.561H180.2V239.74ZM46.048 237.611H178.07V134.69H46.048V237.611Z" fill="#061533"/>
<path d="M14.6395 161.84H95.5563L128.207 133.803H44.8059L14.6395 161.84Z" fill="white"/>
<path d="M95.9467 162.905H11.9423L44.4155 132.738H131.117L95.9467 162.905ZM17.3367 160.775H95.1659L125.332 134.868H45.2317L17.3367 160.775Z" fill="#061533"/>
<path d="M179.135 133.625H127.675V238.675H179.135V133.625Z" fill="#061533"/>
<path d="M200.961 161.84H144.887L127.852 133.803H179.312L200.961 161.84Z" fill="white"/>
<path d="M203.126 162.905H144.284L125.971 132.738H179.845L203.126 162.905ZM145.49 160.775H198.796L178.78 134.868H129.733L145.49 160.775Z" fill="#061533"/>
<path d="M44.9832 198.217C44.9832 198.217 35.2236 204.144 35.6849 214.898C35.7914 217.098 36.5012 219.227 37.7433 221.002C40.1921 224.48 45.693 229.91 56.6949 230.868C56.6949 230.868 61.6635 231.578 60.2439 228.029C60.2439 228.029 63.7928 226.254 62.3733 223.06C62.3733 223.06 65.5673 220.221 63.7928 217.737C63.7928 217.737 66.2771 214.188 64.1477 212.768C62.0184 211.349 52.4361 209.574 52.4361 209.574C52.4361 209.574 59.5341 208.154 58.4694 204.96C57.4047 201.766 44.9832 202.228 44.9832 202.228V198.217Z" fill="white"/>
<path d="M57.6531 232.003C57.1563 232.003 56.7659 231.968 56.5529 231.933C45.0188 230.939 39.2694 225.047 36.8561 221.605C35.472 219.653 34.6912 217.346 34.5847 214.933C34.0879 203.683 43.9896 197.543 44.38 197.294L46.0125 196.301V201.127C49.9164 201.056 58.3274 201.305 59.4276 204.605C59.7115 205.457 59.6406 206.309 59.1792 207.09C58.6469 208.048 57.5822 208.758 56.482 209.29C59.4986 209.964 63.3315 210.923 64.6801 211.845C65.3544 212.307 65.8158 212.981 65.9578 213.762C66.2417 215.217 65.4609 216.849 64.9641 217.701C65.9578 219.795 64.6801 221.995 63.5445 223.273C64.2188 225.686 62.7637 227.496 61.4506 228.455C61.6635 229.519 61.3441 230.265 60.9892 230.69C60.2084 231.791 58.7178 232.003 57.6531 232.003ZM43.9186 200.311C41.2923 202.476 36.4302 207.48 36.7497 214.826C36.8206 216.814 37.4949 218.73 38.6306 220.363C40.831 223.486 46.119 228.845 56.8014 229.803H56.8724C57.8306 229.945 59.0727 229.803 59.3921 229.413C59.4986 229.271 59.4631 228.88 59.2857 228.384L58.9308 227.461L59.818 227.035C60.0665 226.893 62.4088 225.615 61.4506 223.45L61.1311 222.741L61.699 222.208C61.7345 222.173 64.1478 219.972 62.9766 218.304L62.5507 217.701L62.9766 217.098C63.438 216.423 64.1478 215.004 63.9703 214.188C63.9348 213.939 63.8284 213.797 63.6154 213.655C62.1958 212.697 55.9141 211.277 52.2942 210.639L46.8643 209.645L52.2942 208.545C53.9267 208.225 56.7659 207.267 57.4402 206.06C57.5822 205.812 57.6177 205.599 57.5112 205.315C57.0498 203.896 50.5552 203.115 45.0898 203.328L43.9895 203.363V200.311H43.9186Z" fill="#061533"/>
<path d="M238.9 155.735L203.268 156.09L207.456 167.908L153.334 223.769C153.334 223.769 140.912 215.5 133.53 214.932C132.004 214.826 130.656 216.033 130.62 217.559C130.585 219.546 131.508 222.421 135.837 225.331C135.837 225.331 129.094 230.512 124.303 233.139C122.564 234.097 121.606 236.049 122.032 237.965C122.493 239.917 124.268 241.869 129.662 241.834C129.662 241.834 129.662 247.406 136.867 245.844C136.867 245.844 138.925 250.99 145.065 248.399C145.065 248.399 146.768 251.806 154.824 246.873L236.664 190.125C242.378 186.15 245.004 179.052 243.23 172.345L238.9 155.735Z" fill="white"/>
<path d="M147.762 250.6C147.229 250.6 146.733 250.529 146.271 250.423C145.597 250.245 145.136 249.926 144.816 249.642C142.793 250.352 140.983 250.352 139.386 249.677C137.789 249.003 136.831 247.796 136.334 247.016C133.921 247.406 132.004 247.016 130.62 245.915C129.449 244.993 128.988 243.715 128.775 242.863C123.238 242.65 121.499 240.237 121.038 238.179C120.506 235.836 121.641 233.388 123.842 232.181C127.32 230.264 131.969 226.893 134.098 225.331C130.372 222.421 129.591 219.546 129.591 217.559C129.591 216.53 130.052 215.536 130.798 214.862C131.578 214.152 132.608 213.797 133.601 213.904C140.202 214.4 150.317 220.647 153.156 222.457L206.214 167.696L201.742 155.097L239.68 154.707L244.259 172.097C246.14 179.23 243.336 186.825 237.267 191.013L155.428 247.796H155.392C152.375 249.642 149.785 250.6 147.762 250.6ZM146.058 247.903C146.484 248.542 148.755 249.358 154.292 245.951L236.096 189.203C241.419 185.512 243.868 178.84 242.236 172.558L238.083 156.765L204.758 157.084L208.662 168.122L153.476 225.083L152.73 224.586C152.624 224.515 140.451 216.459 133.459 215.891C132.998 215.856 132.572 215.998 132.253 216.317C131.933 216.636 131.72 217.027 131.72 217.488C131.685 219.866 133.317 222.244 136.476 224.338L137.718 225.154L136.547 226.041C136.263 226.254 129.662 231.294 124.871 233.92C123.522 234.665 122.812 236.191 123.132 237.611C123.593 239.669 125.829 240.663 129.733 240.663H130.798V241.728C130.798 241.728 130.833 243.289 132.004 244.212C132.998 244.993 134.595 245.17 136.724 244.709L137.612 244.531L137.931 245.348C137.931 245.348 138.605 246.98 140.273 247.654C141.516 248.151 143.006 248.045 144.745 247.335L145.739 246.909L146.058 247.903Z" fill="#061533"/>
<path d="M148.026 106.892L139.506 125.356L141.439 126.249L149.96 107.784L148.026 106.892Z" fill="#061533"/>
<path d="M123.061 98.1357H120.931V125.818H123.061V98.1357Z" fill="#061533"/>
<path d="M97.057 107.045L95.0684 107.806L101.452 124.478L103.441 123.716L97.057 107.045Z" fill="#061533"/>
</svg>
