<svg width="184" height="49" viewBox="0 0 184 49" fill="none" xmlns="http://www.w3.org/2000/svg">
<path fill-rule="evenodd" clip-rule="evenodd" d="M42.5683 20.5753V36.4199C42.5683 40.935 38.9381 44.5953 34.46 44.5953H14.1894C9.71137 44.5953 6.08118 40.935 6.08118 36.4199V20.5753C6.08118 18.1206 7.17508 15.7958 9.06068 14.2432L19.196 5.89738C22.1807 3.43965 26.4688 3.43964 29.4535 5.89738L39.5888 14.2431C41.4744 15.7958 42.5683 18.1206 42.5683 20.5753ZM14.1894 22.2706C14.1894 21.166 15.0849 20.2706 16.1894 20.2706H32.46C33.5646 20.2706 34.46 21.166 34.46 22.2706V34.4871C34.46 35.5916 33.5646 36.4871 32.46 36.4871H16.1894C15.0849 36.4871 14.1894 35.5916 14.1894 34.4871V22.2706ZM18.9109 25.6717C19.2864 24.9207 20.1996 24.6163 20.9506 24.9918L23.1917 26.1123C23.905 26.469 24.7446 26.469 25.458 26.1123L27.6991 24.9918C28.45 24.6163 29.3632 24.9207 29.7387 25.6717C30.1142 26.4227 29.8098 27.3359 29.0588 27.7114L26.8178 28.8319C25.2484 29.6166 23.4012 29.6166 21.8319 28.8319L19.5908 27.7114C18.8398 27.3359 18.5354 26.4227 18.9109 25.6717Z" fill="#F01543"/>
<path d="M54.055 35.1411V10.9786H63.0389C64.6822 10.9786 66.1309 11.2813 67.3849 11.8867C68.6606 12.4705 69.6552 13.3353 70.3688 14.4813C71.0823 15.6057 71.4391 16.9787 71.4391 18.6003C71.4391 20.2652 71.039 21.6814 70.239 22.849C69.4606 24.0166 68.4012 24.8815 67.0606 25.4437L72.6066 35.1411H67.612L61.6767 24.5355L64.5308 26.2221H58.4659V35.1411H54.055ZM58.4659 22.3301H63.1038C63.9038 22.3301 64.5957 22.1787 65.1795 21.876C65.7633 21.5517 66.2173 21.1085 66.5417 20.5463C66.866 19.9841 67.0282 19.3355 67.0282 18.6003C67.0282 17.8435 66.866 17.1949 66.5417 16.6543C66.2173 16.0922 65.7633 15.6597 65.1795 15.357C64.5957 15.0327 63.9038 14.8705 63.1038 14.8705H58.4659V22.3301Z" fill="#000929"/>
<path d="M82.2022 35.5303C80.386 35.5303 78.7968 35.1195 77.4346 34.2979C76.0724 33.4762 75.0129 32.3627 74.2562 30.9573C73.4994 29.5518 73.121 27.9951 73.121 26.2869C73.121 24.5139 73.4994 22.9463 74.2562 21.5841C75.0346 20.2003 76.0832 19.1084 77.4022 18.3084C78.7427 17.5084 80.2346 17.1084 81.8779 17.1084C83.2617 17.1084 84.4726 17.3354 85.5104 17.7895C86.5699 18.2435 87.4672 18.8706 88.2023 19.6706C88.9375 20.4706 89.4997 21.3895 89.8889 22.4274C90.2781 23.4436 90.4727 24.5464 90.4727 25.7356C90.4727 26.0383 90.451 26.3518 90.4078 26.6761C90.3862 27.0004 90.3321 27.2815 90.2456 27.5194H76.6238V24.2761H87.8456L85.8347 25.8004C86.0293 24.8058 85.9753 23.9193 85.6726 23.1409C85.3915 22.3625 84.9158 21.7463 84.2455 21.2922C83.5969 20.8382 82.8077 20.6111 81.8779 20.6111C80.9914 20.6111 80.2022 20.8382 79.5103 21.2922C78.8184 21.7247 78.2887 22.3733 77.9211 23.2382C77.5751 24.0815 77.4454 25.1085 77.5319 26.3194C77.4454 27.4005 77.5859 28.3626 77.9535 29.2059C78.3427 30.0275 78.9049 30.6654 79.64 31.1194C80.3968 31.5735 81.2617 31.8005 82.2347 31.8005C83.2077 31.8005 84.0293 31.5951 84.6996 31.1843C85.3915 30.7735 85.932 30.2221 86.3212 29.5302L89.7591 31.2167C89.4132 32.06 88.8726 32.806 88.1375 33.4546C87.4023 34.1033 86.5266 34.6114 85.5104 34.979C84.5158 35.3465 83.4131 35.5303 82.2022 35.5303Z" fill="#000929"/>
<path d="M100.083 35.5303C98.2016 35.5303 96.5583 35.0871 95.1529 34.2006C93.7691 33.2924 92.8177 32.0708 92.2988 30.5356L95.4772 29.0113C95.9313 30.0059 96.5583 30.7843 97.3583 31.3465C98.18 31.9086 99.0881 32.1897 100.083 32.1897C100.861 32.1897 101.477 32.0167 101.931 31.6708C102.385 31.3248 102.612 30.8708 102.612 30.3086C102.612 29.9627 102.515 29.6816 102.321 29.4654C102.148 29.2275 101.899 29.0329 101.575 28.8816C101.272 28.7086 100.937 28.568 100.569 28.4599L97.6827 27.6491C96.1907 27.2167 95.0556 26.5572 94.2772 25.6707C93.5204 24.7842 93.142 23.7355 93.142 22.5247C93.142 21.4436 93.4123 20.503 93.9529 19.703C94.515 18.8814 95.2826 18.2435 96.2556 17.7895C97.2502 17.3354 98.3854 17.1084 99.6611 17.1084C101.326 17.1084 102.796 17.5084 104.072 18.3084C105.348 19.1084 106.256 20.2328 106.796 21.6814L103.553 23.2058C103.25 22.4058 102.742 21.7679 102.029 21.2922C101.315 20.8166 100.515 20.5787 99.6286 20.5787C98.9151 20.5787 98.3529 20.7409 97.9421 21.0652C97.5313 21.3895 97.3259 21.8112 97.3259 22.3301C97.3259 22.6544 97.4124 22.9355 97.5854 23.1734C97.7583 23.4112 97.9962 23.6058 98.2989 23.7571C98.6232 23.9085 98.9908 24.049 99.4016 24.1788L102.223 25.022C103.672 25.4545 104.785 26.1031 105.564 26.968C106.364 27.8329 106.764 28.8924 106.764 30.1464C106.764 31.2059 106.483 32.1465 105.921 32.9681C105.358 33.7681 104.58 34.3952 103.585 34.8492C102.591 35.3033 101.423 35.5303 100.083 35.5303Z" fill="#000929"/>
<path d="M118.072 35.5303C116.256 35.5303 114.667 35.1195 113.305 34.2979C111.943 33.4762 110.883 32.3627 110.126 30.9573C109.37 29.5518 108.991 27.9951 108.991 26.2869C108.991 24.5139 109.37 22.9463 110.126 21.5841C110.905 20.2003 111.953 19.1084 113.272 18.3084C114.613 17.5084 116.105 17.1084 117.748 17.1084C119.132 17.1084 120.343 17.3354 121.381 17.7895C122.44 18.2435 123.337 18.8706 124.072 19.6706C124.808 20.4706 125.37 21.3895 125.759 22.4274C126.148 23.4436 126.343 24.5464 126.343 25.7356C126.343 26.0383 126.321 26.3518 126.278 26.6761C126.256 27.0004 126.202 27.2815 126.116 27.5194H112.494V24.2761H123.716L121.705 25.8004C121.899 24.8058 121.845 23.9193 121.543 23.1409C121.262 22.3625 120.786 21.7463 120.116 21.2922C119.467 20.8382 118.678 20.6111 117.748 20.6111C116.862 20.6111 116.072 20.8382 115.38 21.2922C114.689 21.7247 114.159 22.3733 113.791 23.2382C113.445 24.0815 113.316 25.1085 113.402 26.3194C113.316 27.4005 113.456 28.3626 113.824 29.2059C114.213 30.0275 114.775 30.6654 115.51 31.1194C116.267 31.5735 117.132 31.8005 118.105 31.8005C119.078 31.8005 119.899 31.5951 120.57 31.1843C121.262 30.7735 121.802 30.2221 122.191 29.5302L125.629 31.2167C125.283 32.06 124.743 32.806 124.008 33.4546C123.272 34.1033 122.397 34.6114 121.381 34.979C120.386 35.3465 119.283 35.5303 118.072 35.5303Z" fill="#000929"/>
<path d="M129.239 35.1411V17.4976H133.228V21.422L132.904 20.8382C133.315 19.5192 133.953 18.6003 134.818 18.0814C135.704 17.5624 136.764 17.303 137.996 17.303H139.034V21.0652H137.51C136.299 21.0652 135.326 21.4436 134.591 22.2004C133.855 22.9355 133.488 23.9734 133.488 25.3139V35.1411H129.239Z" fill="#000929"/>
<path d="M146.365 35.1411L139.424 17.4976H144.062L149.089 31.3789H147.37L152.43 17.4976H157.067L150.127 35.1411H146.365Z" fill="#000929"/>
<path d="M171.351 35.5303C169.578 35.5303 167.924 35.2168 166.389 34.5898C164.854 33.9627 163.513 33.087 162.367 31.9627C161.221 30.8384 160.324 29.5194 159.675 28.0059C159.048 26.4707 158.735 24.8166 158.735 23.0436C158.735 21.249 159.048 19.5949 159.675 18.0814C160.302 16.5678 161.189 15.2489 162.335 14.1246C163.481 13.0002 164.821 12.1353 166.356 11.5299C167.892 10.9029 169.557 10.5894 171.351 10.5894C173.146 10.5894 174.811 10.9029 176.346 11.5299C177.881 12.1569 179.222 13.0326 180.368 14.157C181.513 15.2597 182.4 16.5678 183.027 18.0814C183.676 19.5949 184 21.249 184 23.0436C184 24.8166 183.676 26.4707 183.027 28.0059C182.378 29.5194 181.481 30.8384 180.335 31.9627C179.189 33.087 177.849 33.9627 176.313 34.5898C174.8 35.2168 173.146 35.5303 171.351 35.5303ZM171.351 31.5086C172.54 31.5086 173.632 31.3032 174.627 30.8924C175.621 30.46 176.486 29.8654 177.222 29.1086C177.978 28.3518 178.551 27.4545 178.94 26.4167C179.351 25.3788 179.557 24.2545 179.557 23.0436C179.557 21.8328 179.351 20.7193 178.94 19.703C178.551 18.6652 177.978 17.7679 177.222 17.0111C176.486 16.2327 175.621 15.6381 174.627 15.2273C173.632 14.8165 172.54 14.611 171.351 14.611C170.184 14.611 169.102 14.8165 168.108 15.2273C167.113 15.6381 166.238 16.2327 165.481 17.0111C164.746 17.7679 164.173 18.6652 163.762 19.703C163.351 20.7193 163.146 21.8328 163.146 23.0436C163.146 24.2545 163.351 25.3788 163.762 26.4167C164.173 27.4545 164.746 28.3518 165.481 29.1086C166.238 29.8654 167.113 30.46 168.108 30.8924C169.102 31.3032 170.184 31.5086 171.351 31.5086ZM176.93 38.0601L169.405 25.4761H174.011L181.632 38.0601H176.93Z" fill="#000929"/>
</svg>
