<svg width="58" height="64" viewBox="0 0 58 64" fill="none" xmlns="http://www.w3.org/2000/svg">
<path d="M29.6121 0C29.6898 0.0516178 29.7415 0.103236 29.8191 0.129044C31.2943 0.645222 32.0965 1.70339 32.0965 3.27773C32.0965 10.0397 32.1224 16.8016 32.0965 23.5893C32.0965 25.4992 30.699 26.8929 28.9651 26.8671C27.2054 26.8412 25.8855 25.4734 25.8855 23.5893C25.8596 16.8274 25.8855 10.0655 25.8855 3.27773C25.8855 1.57434 26.8172 0.567796 28.3699 0C28.784 0 29.198 0 29.6121 0Z" fill="#333333"/>
<path d="M51.7643 35.1773C51.6608 28.6476 49.3576 23.0471 44.5699 18.5822C43.1725 17.2659 41.4903 16.2594 39.8858 15.1496C38.566 14.2463 37.9708 12.9558 38.3589 11.588C38.9024 9.6523 41.0504 8.72318 42.8878 9.72973C47.5978 12.3106 51.3244 15.8981 54.0417 20.5178C56.9401 25.4731 58.2858 30.8672 57.9494 36.5968C57.4836 44.5717 54.2487 51.282 48.2965 56.6503C44.0006 60.5216 38.9542 62.896 33.209 63.6961C24.643 64.8575 16.9569 62.6896 10.3319 57.1665C5.20784 52.908 1.94707 47.4881 0.627236 41.0101C-1.02903 32.7512 0.601357 25.1634 5.44075 18.2725C7.92514 14.7367 11.1083 11.9493 14.8866 9.83296C16.31 9.03289 17.8886 9.26517 18.872 10.3749C19.8295 11.4589 19.9589 13.1107 19.0273 14.2205C18.5614 14.7883 17.8886 15.2012 17.2675 15.5883C13.4115 17.937 10.4354 21.1114 8.49448 25.1892C5.98421 30.3768 5.54426 35.7709 7.09701 41.294C8.41684 45.9912 11.0565 49.8367 14.8866 52.8822C18.9496 56.0825 23.6079 57.7343 28.7837 57.7601C33.6748 57.8117 38.126 56.418 42.1114 53.579C46.2003 50.6884 49.047 46.8171 50.6256 42.0683C51.402 39.8487 51.7384 37.5517 51.7643 35.1773Z" fill="#333333"/>
</svg>
