<svg width="24" height="24" viewBox="0 0 24 24" fill="none" xmlns="http://www.w3.org/2000/svg">
<path fill-rule="evenodd" clip-rule="evenodd" d="M7.76303 2.28845C8.15599 2.15746 8.58073 2.36983 8.71172 2.76279C8.8427 3.15575 8.63033 3.58049 8.23737 3.71147L8.08342 3.76279C6.51575 4.28535 5.28559 5.5155 4.76303 7.08318L4.71172 7.23713C4.58073 7.63009 4.15599 7.84246 3.76303 7.71147C3.37008 7.58049 3.15771 7.15575 3.28869 6.76279L3.34001 6.60884C4.01187 4.59326 5.5935 3.01162 7.60908 2.33976L7.76303 2.28845ZM16.2373 2.28845C15.8443 2.15746 15.4196 2.36983 15.2886 2.76279C15.1576 3.15575 15.37 3.58049 15.763 3.71147L15.9169 3.76279C17.4846 4.28535 18.7147 5.5155 19.2373 7.08318L19.2886 7.23713C19.4196 7.63009 19.8443 7.84246 20.2373 7.71147C20.6303 7.58049 20.8426 7.15575 20.7116 6.76279L20.6603 6.60884C19.9885 4.59326 18.4068 3.01162 16.3912 2.33976L16.2373 2.28845ZM12.0002 4C8.77111 4 6.05398 6.49086 5.6798 9.79403L5.33492 12.8385C5.24923 13.595 4.94263 14.3069 4.45566 14.88C3.42225 16.0964 4.26098 18 5.8303 18H18.17C19.7394 18 20.5781 16.0964 19.5447 14.88C19.0577 14.3069 18.7511 13.595 18.6654 12.8385L18.3205 9.79403C17.9463 6.49086 15.2292 4 12.0002 4ZM12.0002 22C13.3567 22 14.5149 21.1992 14.9723 20.0715C14.9913 20.0245 15.0002 19.974 15.0002 19.9233C15.0002 19.6895 14.8107 19.5 14.5769 19.5H9.42345C9.18968 19.5 9.00016 19.6895 9.00016 19.9233C9.00016 19.974 9.00899 20.0245 9.02805 20.0715C9.48542 21.1992 10.6436 22 12.0002 22Z" fill="#F01543"/>
</svg>
