<svg width="28" height="28" viewBox="0 0 28 28" fill="none" xmlns="http://www.w3.org/2000/svg">
<path fill-rule="evenodd" clip-rule="evenodd" d="M19.752 8.16659C19.7891 8.0839 19.8065 7.99379 19.8028 7.9033H19.8333C19.7029 4.79015 17.1324 2.33325 14.0058 2.33325C10.8792 2.33325 8.30868 4.79015 8.1782 7.9033C8.16282 7.99039 8.16282 8.07949 8.1782 8.16659H8.087C6.59192 8.16659 4.99374 9.15355 4.52975 11.8067L3.62239 19.0338C2.88001 24.34 5.61239 25.6666 9.17995 25.6666H18.8516C22.4088 25.6666 25.0587 23.7457 24.3988 19.0338L23.5018 11.8067C22.9553 9.22784 21.4086 8.16659 19.9342 8.16659H19.752ZM18.0754 8.16659C18.0429 8.08252 18.0257 7.99337 18.0246 7.9033C18.0246 5.66621 16.2048 3.8527 13.96 3.8527C11.7152 3.8527 9.89548 5.66621 9.89548 7.9033C9.91086 7.99039 9.91086 8.07949 9.89548 8.16659H18.0754ZM10.6132 14.1733C10.0437 14.1733 9.58208 13.6981 9.58208 13.112C9.58208 12.5259 10.0437 12.0508 10.6132 12.0508C11.1826 12.0508 11.6443 12.5259 11.6443 13.112C11.6443 13.6981 11.1826 14.1733 10.6132 14.1733ZM16.3357 13.112C16.3357 13.6981 16.7973 14.1733 17.3668 14.1733C17.9362 14.1733 18.3979 13.6981 18.3979 13.112C18.3979 12.5259 17.9362 12.0508 17.3668 12.0508C16.7973 12.0508 16.3357 12.5259 16.3357 13.112Z" fill="#F01543"/>
</svg>
