<svg width="28" height="28" viewBox="0 0 28 28" fill="none" xmlns="http://www.w3.org/2000/svg">
<path fill-rule="evenodd" clip-rule="evenodd" d="M8.94813 2.33252H19.0631C23.0181 2.33252 25.6665 5.10919 25.6665 9.23919V18.772C25.6665 22.8904 23.0181 25.6659 19.0631 25.6659H8.94813C4.99313 25.6659 2.33313 22.8904 2.33313 18.772V9.23919C2.33313 5.10919 4.99313 2.33252 8.94813 2.33252ZM17.5115 17.4992C17.9081 17.1037 17.9081 16.462 17.5115 16.0654L15.4348 13.9887L17.5115 11.9109C17.9081 11.5154 17.9081 10.862 17.5115 10.4654C17.1148 10.0675 16.4731 10.0675 16.0648 10.4654L13.9998 12.5409L11.9231 10.4654C11.5148 10.0675 10.8731 10.0675 10.4765 10.4654C10.0798 10.862 10.0798 11.5154 10.4765 11.9109L12.5531 13.9887L10.4765 16.0537C10.0798 16.462 10.0798 17.1037 10.4765 17.4992C10.6748 17.6975 10.9431 17.8037 11.1998 17.8037C11.4681 17.8037 11.7248 17.6975 11.9231 17.4992L13.9998 15.4354L16.0765 17.4992C16.2748 17.7104 16.5315 17.8037 16.7881 17.8037C17.0565 17.8037 17.3131 17.6975 17.5115 17.4992Z" fill="url(#paint0_linear_408_14260)"/>
<defs>
<linearGradient id="paint0_linear_408_14260" x1="1.9651" y1="13.9152" x2="25.6665" y2="13.9152" gradientUnits="userSpaceOnUse">
<stop stop-color="#F01543"/>
<stop offset="1" stop-color="#FE724C"/>
</linearGradient>
</defs>
</svg>
