<svg width="28" height="28" viewBox="0 0 28 28" fill="none" xmlns="http://www.w3.org/2000/svg">
<path fill-rule="evenodd" clip-rule="evenodd" d="M23.0545 14.0012C23.0545 14.9502 23.8339 15.7224 24.7917 15.7224C25.2747 15.7224 25.6667 16.1109 25.6667 16.5895V19.7118C25.6667 22.3521 23.499 24.5 20.8344 24.5H7.16687C4.50221 24.5 2.33337 22.3521 2.33337 19.7118V16.5895C2.33337 16.1109 2.72537 15.7224 3.20837 15.7224C4.16737 15.7224 4.94671 14.9502 4.94671 14.0012C4.94671 13.0764 4.19887 12.3804 3.20837 12.3804C2.97621 12.3804 2.75454 12.2891 2.59004 12.1261C2.42554 11.9631 2.33337 11.7423 2.33337 11.5134L2.33571 8.28933C2.33571 5.64901 4.50337 3.5 7.16804 3.5H20.832C23.4967 3.5 25.6655 5.64901 25.6655 8.28933L25.6667 11.4129C25.6667 11.6417 25.5745 11.8637 25.4112 12.0255C25.2467 12.1885 25.025 12.2799 24.7917 12.2799C23.8339 12.2799 23.0545 13.0521 23.0545 14.0012ZM16.6274 14.756L18.0029 13.4289C18.242 13.2 18.3249 12.8625 18.221 12.5504C18.1184 12.2382 17.85 12.0163 17.5257 11.9712L15.6252 11.6961L14.7747 9.98982C14.6289 9.69619 14.3325 9.51354 14.0024 9.51239H14C13.671 9.51239 13.3747 9.69503 13.2265 9.98866L12.376 11.6961L10.479 11.9701C10.1512 12.0163 9.88287 12.2382 9.77904 12.5504C9.67637 12.8625 9.75921 13.2 9.99721 13.4289L11.3727 14.756L11.0484 16.6322C10.9924 16.9559 11.1242 17.2773 11.3925 17.4703C11.5442 17.5778 11.7204 17.6333 11.8989 17.6333C12.0354 17.6333 12.173 17.5998 12.299 17.5339L14 16.6484L15.6975 17.5316C15.9915 17.6877 16.3404 17.6634 16.6075 17.4692C16.877 17.2773 17.0089 16.9559 16.9529 16.6322L16.6274 14.756Z" fill="#FE724C"/>
</svg>
