<svg width="304" height="311" viewBox="0 0 304 311" fill="none" xmlns="http://www.w3.org/2000/svg">
<path d="M248.053 70.9899C272.676 89.1855 318.447 204.345 299.165 246.729C281.06 286.525 151.721 284.993 87.5898 279.642C23.4588 274.292 6.79145 244.508 18.3288 189.112C33.5414 116.042 56.3754 65.5623 99.4348 58.7001C144.497 51.5202 221.707 51.5202 248.053 70.9899Z" fill="white"/>
<path opacity="0.2" d="M285.955 80.9989L284.929 83.6743C284.8 84.0074 284.536 84.2708 284.203 84.3999L281.528 85.4233C281.049 85.6148 280.736 86.0783 280.736 86.5937C280.736 87.1091 281.049 87.5726 281.528 87.7642L284.203 88.7908C284.538 88.9178 284.802 89.1819 284.929 89.5165L285.955 92.1918C286.147 92.6703 286.61 92.9841 287.126 92.9841C287.641 92.9841 288.105 92.6703 288.296 92.1918L289.323 89.5165C289.45 89.1831 289.713 88.9193 290.045 88.7908L292.721 87.7642C293.199 87.5726 293.513 87.1091 293.513 86.5937C293.513 86.0783 293.199 85.6148 292.721 85.4233L290.045 84.3999C289.714 84.2697 289.452 84.0065 289.323 83.6743L288.296 80.9989C288.105 80.5204 287.641 80.2067 287.126 80.2067C286.61 80.2067 286.147 80.5204 285.955 80.9989Z" fill="#D2E3FF"/>
<path d="M7.67899 132.676L6.17746 136.596C5.98931 137.087 5.60151 137.474 5.11068 137.663L1.19132 139.167C0.473883 139.442 0 140.13 0 140.898C0 141.666 0.473883 142.354 1.19132 142.629L5.10733 144.134C5.59852 144.321 5.98741 144.707 6.17746 145.197L7.68234 149.12C7.9577 149.835 8.64494 150.307 9.41127 150.307C10.1776 150.307 10.8648 149.835 11.1402 149.12L12.6484 145.197C12.8359 144.709 13.2209 144.323 13.7085 144.134L17.6312 142.629C18.3487 142.354 18.8225 141.666 18.8225 140.898C18.8225 140.13 18.3487 139.442 17.6312 139.167L13.7085 137.663C13.2185 137.474 12.8317 137.086 12.6451 136.596L11.1369 132.676C10.8615 131.961 10.1743 131.489 9.40793 131.489C8.64159 131.489 7.95435 131.961 7.67899 132.676Z" fill="#D2E3FF"/>
<path d="M198.822 169.305L197.819 171.94C197.692 172.27 197.43 172.53 197.1 172.656L194.468 173.659C193.986 173.843 193.668 174.305 193.668 174.821C193.668 175.337 193.986 175.799 194.468 175.983L197.1 176.986C197.43 177.113 197.691 177.373 197.819 177.702L198.822 180.337C199 180.831 199.468 181.16 199.993 181.16C200.517 181.16 200.985 180.831 201.163 180.337L202.166 177.702C202.292 177.372 202.552 177.112 202.882 176.986L205.514 175.983C205.996 175.799 206.314 175.337 206.314 174.821C206.314 174.305 205.996 173.843 205.514 173.659L202.882 172.656C202.552 172.531 202.291 172.27 202.166 171.94L201.163 169.305C200.985 168.811 200.517 168.482 199.993 168.482C199.468 168.482 199 168.811 198.822 169.305Z" fill="white"/>
<path d="M93.712 246.077L93.0432 247.846C92.9587 248.068 92.7835 248.243 92.5617 248.327L90.7926 248.996C90.469 249.12 90.2552 249.431 90.2552 249.777C90.2552 250.124 90.469 250.434 90.7926 250.558L92.5617 251.227C92.7828 251.312 92.9576 251.487 93.0432 251.708L93.712 253.481C93.8358 253.804 94.1464 254.018 94.4929 254.018C94.8394 254.018 95.15 253.804 95.2738 253.481L95.9426 251.708C96.0293 251.488 96.2037 251.313 96.4242 251.227L98.1966 250.558C98.5202 250.434 98.7339 250.124 98.7339 249.777C98.7339 249.431 98.5202 249.12 98.1966 248.996L96.4242 248.327C96.203 248.242 96.0282 248.067 95.9426 247.846L95.2738 246.077C95.15 245.753 94.8394 245.539 94.4929 245.539C94.1464 245.539 93.8358 245.753 93.712 246.077Z" fill="white"/>
<path d="M112.775 72.234L112.106 74.0031C112.022 74.2249 111.847 74.4001 111.625 74.4846L109.856 75.1535C109.532 75.2773 109.319 75.5878 109.319 75.9343C109.319 76.2808 109.532 76.5914 109.856 76.7152L111.625 77.384C111.847 77.4686 112.022 77.6438 112.106 77.8656L112.775 79.6346C112.899 79.9583 113.21 80.172 113.556 80.172C113.903 80.172 114.213 79.9583 114.337 79.6346L115.006 77.8656C115.09 77.6438 115.266 77.4686 115.487 77.384L117.256 76.7152C117.58 76.5914 117.794 76.2808 117.794 75.9343C117.794 75.5878 117.58 75.2773 117.256 75.1535L115.487 74.4846C115.266 74.4001 115.09 74.2249 115.006 74.0031L114.337 72.234C114.213 71.9104 113.903 71.6967 113.556 71.6967C113.21 71.6967 112.899 71.9104 112.775 72.234Z" fill="white"/>
<path d="M144.727 144.942C144.6 150.45 149.596 154.975 155.886 154.975C162.177 154.975 167.223 150.437 167.153 144.942C167.086 139.528 162.09 135.208 155.993 135.208C149.897 135.208 144.854 139.528 144.727 144.942Z" fill="#FBDFE4"/>
<path fill-rule="evenodd" clip-rule="evenodd" d="M67.041 276.763C69.5915 277.296 72.249 277.77 75.0135 278.184L82.0028 214.856H90.0923C99.9409 214.856 107.372 222.795 106.639 232.801L103.128 280.769C105.776 280.936 108.491 281.094 111.271 281.241L114.304 232.801C115.19 218.692 104.636 207.616 90.8113 207.616H82.8054L89.3767 148.046H126.162C127.166 160.46 137.931 170.649 152.14 172.184L150.939 282.404C153.769 282.42 156.613 282.42 159.474 282.404V208.726H275.516L284.368 261.814C286.869 260.331 289.233 258.628 291.434 256.728L282.893 208.729H303.256C303.055 206.388 302.794 204.021 302.487 201.613H281.626L272.095 148.046H289.485C288.782 145.975 288.065 143.916 287.331 141.869H219.04L216.645 116.691C215.876 108.608 207.543 102.191 198.052 102.191C192.032 102.191 186.916 98.1779 186.682 93.3322L186.581 91.2388H264.109C263.079 89.5177 262.055 87.8768 261.036 86.3162H186.357L184.879 55.1051C182.966 54.978 181.04 54.8666 179.101 54.7707L180.254 86.3195H159.43V54.3058C157.424 54.3058 155.424 54.3215 153.431 54.3527L153.096 86.3195H96.1854L99.2286 58.7402C97.2204 59.066 95.2302 59.4946 93.2659 60.0244L90.0856 86.3195H56.8313C55.6341 87.898 54.4669 89.5377 53.3299 91.2388H89.4904L83.3639 141.869H30.399C29.7525 143.9 29.1204 145.959 28.5029 148.046H82.6181L75.4014 207.616H15.4606C15.2377 210.093 15.0827 212.506 14.9958 214.856H74.5219L67.041 276.763ZM212.345 141.869H185.425C183.372 130.165 172.59 121.172 159.434 119.868V91.2387H180.435L180.512 93.3322C180.793 101 188.819 107.378 198.393 107.378C204.48 107.378 209.784 111.514 210.218 116.678L212.345 141.869ZM185.681 148.046C184.558 160.46 173.676 170.649 159.45 172.184L159.457 201.613H274.308L265.349 148.046H185.681ZM133.698 144.943C134.13 134.295 144.126 125.921 156.041 125.921C167.956 125.921 177.861 134.282 178.179 144.943C178.514 155.978 168.508 165.185 155.83 165.185C143.152 165.185 133.254 155.965 133.698 144.943ZM95.6431 91.2387L90.055 141.869H126.486C128.663 130.155 139.539 121.172 152.708 119.868L153.019 91.2387H95.6431Z" fill="#E8E6F9"/>
<path d="M228.083 134.409H270.704L266.758 112.431H225.645L228.083 134.409Z" fill="#FBDFE4"/>
<path d="M24.8711 251.862H61.8107L65.8939 220.979H30.4993L24.8711 251.862Z" fill="#FBDFE4"/>
<path d="M45.7601 137.211H76.9578L79.8906 115.036H49.7998L45.7601 137.211Z" fill="#FBDFE4"/>
<path d="M136.831 83.7245H149.375L149.66 68.4985H137.433L136.831 83.7245Z" fill="#FBDFE4"/>
<path d="M230.813 195.951H266.77L264.546 181.561H229.579L230.813 195.951Z" fill="#FBDFE4"/>
<g opacity="0.1">
<path d="M248.087 74.9031C249.279 111.338 202.906 141.347 144.519 141.347C86.1333 141.347 39.3219 111.338 39.9568 74.9031C40.5828 39.091 86.9531 10.5165 143.542 10.5165C200.13 10.5165 246.924 39.091 248.087 74.9031Z" fill="#F01543"/>
</g>
<g opacity="0.2">
<path d="M207.047 72.5871C207.763 94.6455 179.686 112.829 144.327 112.829C108.968 112.829 80.62 94.6455 81.0045 72.5871C81.3861 50.8984 109.466 33.5915 143.734 33.5915C178.002 33.5915 206.344 50.9014 207.047 72.5871Z" fill="#F01543"/>
</g>
<g opacity="0.3">
<path d="M173.258 70.1971C173.612 81.079 159.767 90.0414 142.327 90.0414C124.888 90.0414 110.912 81.079 111.103 70.1971C111.287 59.4958 125.148 50.9682 142.037 50.9682C158.925 50.9682 172.913 59.5025 173.258 70.1971Z" fill="#F01543"/>
</g>
<path d="M26.3486 202.607H63.636C65.0914 202.607 66.2712 201.427 66.2712 199.972V175.56H23.7134V199.972C23.7134 201.427 24.8932 202.607 26.3486 202.607Z" fill="#F01543"/>
<path d="M21.4146 168.748H28.1865V176.272C28.181 178.137 26.6674 179.646 24.8022 179.646C22.9332 179.646 21.418 178.131 21.418 176.262V168.748H21.4146Z" fill="#FFE1AB"/>
<path d="M28.1871 168.748H34.959V176.272C34.959 178.141 33.4438 179.656 31.5747 179.656C29.7056 179.656 28.1904 178.141 28.1904 176.272V168.748H28.1871Z" fill="#970020"/>
<path d="M34.9596 168.748H41.7315V176.272C41.7315 177.169 41.375 178.03 40.7403 178.665C40.1056 179.3 39.2448 179.656 38.3472 179.656C36.4781 179.656 34.9629 178.141 34.9629 176.272V168.748H34.9596Z" fill="#FFE1AB"/>
<path d="M41.7321 168.748H48.504V176.272C48.504 178.141 46.9888 179.656 45.1197 179.656C43.2506 179.656 41.7354 178.141 41.7354 176.272V168.748H41.7321Z" fill="#970020"/>
<path d="M48.5045 168.748H55.2764V176.272C55.2709 178.137 53.7573 179.646 51.8922 179.646C50.0231 179.646 48.5079 178.131 48.5079 176.262V168.748H48.5045Z" fill="#FFE1AB"/>
<path d="M55.2738 168.748H62.0457V176.272C62.0457 178.141 60.5305 179.656 58.6614 179.656C56.7923 179.656 55.2771 178.141 55.2771 176.272V168.748H55.2738Z" fill="#970020"/>
<path d="M62.0465 168.748H68.5709V176.396C68.5709 178.198 67.1096 179.66 65.307 179.66C63.5044 179.66 62.0431 178.198 62.0431 176.396V168.748H62.0465Z" fill="#FFE1AB"/>
<path d="M68.5707 168.748H21.418L27.1432 161.29C28.1429 159.992 29.6883 159.231 31.3268 159.23H58.6586C60.2973 159.23 61.8431 159.991 62.8421 161.29L68.5707 168.748Z" fill="#FE724C"/>
<path d="M31.3273 159.23C30.1952 159.232 29.094 159.599 28.1871 160.277V168.748H34.959V159.23H31.3273Z" fill="#F01543"/>
<rect x="41.7321" y="159.23" width="6.77193" height="9.50745" fill="#F01543"/>
<path d="M58.6614 159.23H55.2738V168.748H62.0457V160.464C61.0977 159.668 59.8995 159.231 58.6614 159.23Z" fill="#F01543"/>
<rect x="30.5493" y="182.77" width="9.5409" height="19.8376" fill="white"/>
<rect x="46.4883" y="182.77" width="14.7143" height="12.9319" fill="white"/>
<path d="M260.101 162.852C260.101 162.852 259.69 142.043 269.483 134.718C279.275 127.393 283.988 134.251 283.725 136.534C283.462 138.816 279.893 139.517 282.242 141.914C284.59 144.312 286.34 145.027 283.376 146.801C280.412 148.574 282.058 150.981 284.94 151.089C287.822 151.197 289.218 156.426 283.113 157.303C277.009 158.18 272.241 163.913 272.241 163.913L260.101 162.852Z" fill="#FE724C"/>
<path d="M263.317 163.126C263.317 163.126 264.101 145.144 276.309 136.527" stroke="white" stroke-width="2" stroke-linecap="round" stroke-linejoin="round"/>
<path d="M264.971 163.208C264.971 163.208 267.007 148.84 281.597 144.309" stroke="white" stroke-width="2" stroke-linecap="round" stroke-linejoin="round"/>
<path d="M268.121 163.552C268.121 163.552 271.077 154.337 284.417 152.943" stroke="white" stroke-width="2" stroke-linecap="round" stroke-linejoin="round"/>
<path d="M269.143 153.342L279.011 151.986" stroke="white" stroke-width="2" stroke-linecap="round" stroke-linejoin="round"/>
<path d="M274.077 148.161L275.44 141.362" stroke="white" stroke-width="2" stroke-linecap="round" stroke-linejoin="round"/>
<path d="M267.744 146.8L267.175 140.81" stroke="white" stroke-width="2" stroke-linecap="round" stroke-linejoin="round"/>
<path d="M238.296 155.589C238.296 155.589 238.127 152.367 241.958 151.851C245.185 151.415 242.597 147.027 246.842 147.143C251.087 147.26 250.145 145.468 252.03 144.441C253.469 143.655 255.649 145.312 257.305 143.903C258.278 143.082 260.881 142.522 262.276 144.746C263.277 146.34 266.636 145.137 267.537 147.914C268.207 149.977 272.537 146.577 273.06 149.192C273.582 151.807 276.374 149.739 277.187 151.851C278 153.962 281.663 152.446 281.605 155.589H238.296Z" fill="white"/>
<path d="M247.047 154.519C246.482 153.768 246.317 152.789 246.605 151.895C246.605 151.895 247.462 152.89 247.047 154.519Z" fill="#D2E3FF"/>
<path d="M262.929 152.727C262.364 151.975 262.199 150.996 262.487 150.101C262.487 150.101 263.344 151.084 262.929 152.727Z" fill="#D2E3FF"/>
<path d="M259.831 150.537C258.951 150.204 258.287 149.465 258.052 148.554C258.052 148.554 259.311 148.93 259.831 150.537Z" fill="#D2E3FF"/>
<path d="M248.585 150.095C247.705 149.762 247.041 149.023 246.806 148.112C246.806 148.112 248.063 148.495 248.585 150.095Z" fill="#D2E3FF"/>
<path d="M265.102 149.742C264.222 149.408 263.558 148.668 263.323 147.757C263.323 147.757 264.58 148.14 265.102 149.742Z" fill="#D2E3FF"/>
<path d="M251.194 150.682C251.946 150.116 252.926 149.952 253.822 150.24C253.822 150.24 252.824 151.097 251.194 150.682Z" fill="#D2E3FF"/>
<path d="M258.052 146.411C258.803 145.847 259.782 145.682 260.676 145.969C260.676 145.969 259.682 146.826 258.052 146.411Z" fill="#D2E3FF"/>
<path d="M253.042 146.718C253.981 146.64 254.9 147.023 255.505 147.747C255.505 147.747 254.199 147.937 253.042 146.718Z" fill="#D2E3FF"/>
<path d="M257.499 152.15C258.436 152.073 259.352 152.457 259.956 153.178C259.956 153.178 258.657 153.371 257.499 152.15Z" fill="#D2E3FF"/>
<path d="M252.505 153.723C252.928 152.883 253.732 152.301 254.662 152.161C254.662 152.161 254.15 153.371 252.505 153.723Z" fill="#D2E3FF"/>
<path d="M240.557 154.779C240.98 153.939 241.784 153.357 242.714 153.218C242.714 153.218 242.202 154.423 240.557 154.779Z" fill="#D2E3FF"/>
<path d="M266.104 152.189C266.526 151.349 267.331 150.766 268.261 150.627C268.261 150.627 267.749 151.837 266.104 152.189Z" fill="#D2E3FF"/>
<path d="M233.304 198.643H268.127L272.242 155.589H229.189L233.304 198.643Z" fill="#970020"/>
<path d="M245.652 155.589L242.163 172.237H230.781L229.189 155.589H245.652Z" fill="#79011A"/>
<ellipse cx="272.176" cy="154.659" rx="8.30353" ry="8.63879" transform="rotate(-57.43 272.176 154.659)" fill="#FE724C"/>
<ellipse cx="272.423" cy="154.001" rx="7.71922" ry="8.6949" transform="rotate(-57.43 272.423 154.001)" fill="#FFBA40"/>
<path d="M265.815 150.994C265.815 150.994 264.075 156.339 269.857 159.407C275.762 162.541 282.289 155.083 277.225 150.239C272.16 145.395 266.949 149.431 267.496 154.007C267.94 157.785 273.813 160.053 276.435 155.964C279.057 151.875 272.421 148.647 270.14 151.175C268.088 153.449 270.578 156.034 272.371 156.02C274.913 156.002 274.937 152.063 272.483 152.238" stroke="white" stroke-width="2" stroke-linecap="round" stroke-linejoin="round"/>
<path d="M249.767 198.643H284.59L288.705 155.589H245.652L249.767 198.643Z" fill="#F01543"/>
<path d="M288.705 155.589L287.114 172.237H247.243L245.652 155.589H288.705Z" fill="#79011A"/>
<circle cx="267.178" cy="182.551" r="8.26659" fill="white"/>
<path d="M269.773 178.032V181.657C269.773 182.345 269.5 183.004 269.014 183.49C268.528 183.976 267.869 184.249 267.182 184.249V184.249C265.75 184.249 264.59 183.089 264.59 181.657V178.032" stroke="#F01543" stroke-width="2" stroke-linecap="round" stroke-linejoin="round"/>
<path d="M267.945 178.032V190.756" stroke="#F01543" stroke-width="2" stroke-linecap="round" stroke-linejoin="round"/>
<path d="M266.421 190.756V178.032" stroke="#F01543" stroke-width="2" stroke-linecap="round" stroke-linejoin="round"/>
<path d="M233.069 196.204H279.014" stroke="white" stroke-width="2" stroke-linecap="round" stroke-linejoin="round"/>
<path d="M296.447 171.027H253.393L245.652 155.589H288.705L296.447 171.027Z" fill="white"/>
<path d="M237.907 171.027H221.445L229.187 155.589H245.651L237.907 171.027Z" fill="white"/>
<path d="M230.812 155.589H269.818" stroke="#F01543" stroke-width="2" stroke-linecap="round" stroke-linejoin="round"/>
<path d="M139.495 74.8436L120.185 44.6117H170.517L151.207 74.8436C149.931 76.8423 147.723 78.0518 145.351 78.0518C142.98 78.0518 140.772 76.8423 139.495 74.8436Z" fill="#F01543"/>
<circle cx="145.35" cy="29.4002" r="29.4002" fill="#F01543"/>
<circle cx="145.351" cy="29.4001" r="11.065" fill="white"/>
<rect x="209.08" y="188.48" width="7.11119" height="47.03" rx="3.55559" fill="#FBC5CF"/>
<rect x="209.08" y="249.373" width="7.11119" height="20.3236" rx="3.55559" fill="#FBC5CF"/>
<path d="M212.179 152.292V280.573C209.251 281.397 206.172 282.174 202.963 282.899C168.134 290.764 118.176 292.513 84.6177 283.791C81.3826 282.952 78.3124 282.006 75.4023 280.986V152.292C75.4036 141.691 83.5779 133.098 93.6609 133.098H193.922C204.005 133.098 212.179 141.691 212.179 152.292Z" fill="white"/>
<path d="M152.484 133.1H194.059C204.153 133.1 212.335 141.283 212.335 151.377V273.527" stroke="#F01543" stroke-width="2" stroke-linecap="round" stroke-linejoin="round"/>
<path d="M203.108 153.358V275.742C168.24 283.231 118.226 284.897 84.6291 276.591V153.358C84.6304 147.049 89.7454 141.935 96.0545 141.935H191.685C194.716 141.932 197.623 143.134 199.766 145.277C201.909 147.42 203.112 150.328 203.108 153.358Z" fill="#000929"/>
<path opacity="0.02" d="M203.108 175.209V275.742C168.24 283.232 118.226 284.897 84.6291 276.591V175.209C84.6304 168.9 89.7454 163.786 96.0545 163.786H191.685C194.716 163.783 197.623 164.985 199.766 167.128C201.909 169.271 203.112 172.178 203.108 175.209Z" fill="white"/>
<rect x="90.2649" y="147.546" width="107.202" height="10.3257" rx="5.16283" fill="white"/>
<path opacity="0.1" d="M171.625 157.871H95.429C94.0592 157.872 92.7453 157.328 91.7767 156.359C90.8081 155.391 90.2643 154.077 90.2649 152.707V152.707C90.2649 151.338 90.809 150.024 91.7774 149.056C92.7459 148.087 94.0594 147.543 95.429 147.543H132.25" stroke="#F01543" stroke-width="2" stroke-linecap="round" stroke-linejoin="round"/>
<circle cx="190.416" cy="152.212" r="2.15351" stroke="#F01543" stroke-width="2" stroke-linecap="round" stroke-linejoin="round"/>
<path d="M193.302 155.097L191.94 153.735" stroke="#F01543" stroke-width="2" stroke-linecap="round" stroke-linejoin="round"/>
<rect opacity="0.1" x="93.3338" y="173.267" width="101.062" height="28.1218" rx="14.0609" fill="white"/>
<rect x="98.9296" y="178.892" width="16.8712" height="16.8712" rx="6.56" fill="#FFBA40"/>
<path d="M110.984 189.878C110.984 191.218 109.363 191.686 107.364 191.686C105.366 191.686 103.745 191.218 103.745 189.878C103.745 188.537 105.364 187.45 107.364 187.45C109.365 187.45 110.984 188.54 110.984 189.878Z" fill="#D2E3FF"/>
<ellipse cx="107.364" cy="188.576" rx="6.38769" ry="2.423" fill="#FBC5CF"/>
<ellipse cx="107.364" cy="188.737" rx="3.98411" ry="1.28191" fill="#D2E3FF"/>
<path d="M109.771 187.717L113.464 184.318C113.629 184.209 113.712 184.012 113.674 183.818C113.636 183.625 113.484 183.474 113.291 183.436C113.097 183.398 112.9 183.48 112.792 183.645L109.393 187.338C108.97 187.241 108.528 187.385 108.242 187.712C107.795 188.159 107.688 188.778 107.999 189.096C108.31 189.414 108.936 189.305 109.383 188.853C109.71 188.573 109.859 188.138 109.771 187.717Z" fill="#3D60F6"/>
<path d="M104.47 187.455C103.455 186.969 104.858 185.386 103.984 184.337C103.11 183.288 104.441 182.014 106.582 182.902C108.723 183.791 109.928 182.48 110.022 183.677C110.146 185.158 107.565 188.914 104.47 187.455Z" fill="white"/>
<path d="M106.956 184.303C107.272 184.701 107.054 185.09 106.658 185.406C106.262 185.721 105.835 185.845 105.517 185.447C105.227 185.048 105.303 184.492 105.689 184.186C106.075 183.879 106.634 183.931 106.956 184.303Z" fill="#FE724C"/>
<path d="M105.589 185.185C105.47 184.967 105.47 184.705 105.589 184.488C105.734 184.269 105.909 184.488 105.831 184.655C105.754 184.823 105.504 184.893 105.589 185.185Z" fill="white"/>
<rect x="121.342" y="180.662" width="53.5245" height="2.77261" rx="1.3863" fill="white"/>
<rect opacity="0.1" x="121.342" y="187.367" width="53.5245" height="1.72863" rx="0.864316" fill="#D2E3FF"/>
<rect opacity="0.1" x="121.342" y="191.577" width="29.4887" height="1.72863" rx="0.864316" fill="#D2E3FF"/>
<rect x="180.395" y="180.662" width="8.716" height="8.43437" rx="4.21" fill="#FE724C"/>
<path d="M185.035 184.59H185.785V185.131H185.035V185.981H184.462V185.131H183.709V184.59H184.462V183.784H185.035V184.59Z" fill="white"/>
<rect opacity="0.1" x="93.3338" y="210.797" width="101.062" height="28.1218" rx="14.0609" fill="white"/>
<rect x="98.9296" y="216.422" width="16.8712" height="16.8712" rx="6.56" fill="#FFBA40"/>
<path d="M110.991 227.41C110.991 228.748 109.369 229.216 107.371 229.216C105.373 229.216 103.751 228.748 103.751 227.41C103.751 226.072 105.37 224.982 107.371 224.982C109.371 224.982 110.991 226.07 110.991 227.41Z" fill="#D2E3FF"/>
<ellipse cx="107.37" cy="226.106" rx="6.38769" ry="2.423" fill="#FBC5CF"/>
<ellipse cx="107.37" cy="226.269" rx="3.98411" ry="1.28191" fill="#D2E3FF"/>
<path d="M109.779 225.247L113.472 221.848C113.637 221.74 113.72 221.542 113.682 221.349C113.644 221.155 113.492 221.004 113.299 220.966C113.105 220.928 112.908 221.011 112.799 221.175L109.4 224.868C108.977 224.771 108.534 224.915 108.247 225.242C107.8 225.691 107.696 226.308 108.004 226.626C108.313 226.944 108.939 226.837 109.388 226.383C109.716 226.104 109.865 225.669 109.779 225.247Z" fill="#3D60F6"/>
<path d="M104.475 224.985C103.46 224.499 104.861 222.916 103.989 221.867C103.118 220.818 104.443 219.544 106.587 220.432C108.731 221.321 109.933 220.01 110.027 221.207C110.151 222.688 107.57 226.446 104.475 224.985Z" fill="white"/>
<path d="M106.962 221.836C107.277 222.231 107.061 222.62 106.665 222.935C106.27 223.251 105.84 223.375 105.524 222.979C105.32 222.722 105.268 222.376 105.388 222.071C105.509 221.766 105.783 221.548 106.107 221.499C106.432 221.451 106.757 221.579 106.962 221.836Z" fill="#FE724C"/>
<path d="M105.591 222.714C105.473 222.497 105.473 222.235 105.591 222.017C105.734 221.801 105.912 222.017 105.834 222.185C105.756 222.352 105.504 222.423 105.591 222.714Z" fill="white"/>
<rect x="121.342" y="218.192" width="53.5245" height="2.77261" rx="1.3863" fill="white"/>
<rect opacity="0.1" x="121.342" y="224.898" width="53.5245" height="1.72863" rx="0.864316" fill="#D2E3FF"/>
<rect opacity="0.1" x="121.342" y="229.11" width="29.4887" height="1.72863" rx="0.864316" fill="#D2E3FF"/>
<rect x="180.397" y="218.192" width="8.716" height="8.43437" rx="4.21" fill="#FE724C"/>
<path d="M185.034 222.12H185.787V222.664H185.034V223.512H184.464V222.664H183.709V222.12H184.464V221.307H185.034V222.12Z" fill="white"/>
<rect opacity="0.1" x="93.3338" y="248.327" width="101.062" height="28.1218" rx="14.0609" fill="white"/>
<rect x="98.9296" y="253.952" width="16.8712" height="16.8712" rx="6.56" fill="#FFBA40"/>
<path d="M110.988 264.94C110.988 266.278 109.369 266.747 107.368 266.747C105.368 266.747 103.749 266.278 103.749 264.94C103.749 263.603 105.37 262.513 107.368 262.513C109.367 262.513 110.988 263.603 110.988 264.94Z" fill="#D2E3FF"/>
<ellipse cx="107.361" cy="263.639" rx="6.38769" ry="2.423" fill="#FBC5CF"/>
<ellipse cx="107.361" cy="263.8" rx="3.98411" ry="1.28191" fill="#D2E3FF"/>
<path d="M109.772 262.777L113.467 259.378C113.63 259.269 113.711 259.072 113.672 258.88C113.633 258.687 113.483 258.537 113.29 258.499C113.098 258.461 112.901 258.542 112.792 258.706L109.405 262.401C108.981 262.303 108.538 262.447 108.252 262.775C107.805 263.221 107.699 263.841 108.009 264.156C108.32 264.472 108.944 264.367 109.391 263.913C109.716 263.632 109.862 263.197 109.772 262.777Z" fill="#3D60F6"/>
<path d="M104.473 262.518C103.461 262.032 104.861 260.447 103.987 259.398C103.113 258.349 104.444 257.075 106.585 257.963C108.727 258.852 109.933 257.543 110.026 258.738C110.149 260.219 107.571 263.977 104.473 262.518Z" fill="white"/>
<path d="M106.959 259.367C107.275 259.762 107.059 260.151 106.661 260.466C106.262 260.782 105.837 260.906 105.522 260.51C105.318 260.253 105.266 259.907 105.386 259.602C105.506 259.297 105.78 259.079 106.105 259.03C106.429 258.982 106.755 259.11 106.959 259.367Z" fill="#FE724C"/>
<path d="M105.59 260.245C105.47 260.029 105.47 259.767 105.59 259.551C105.736 259.332 105.911 259.551 105.833 259.716C105.755 259.881 105.505 259.956 105.59 260.245Z" fill="white"/>
<rect x="121.342" y="255.722" width="53.5245" height="2.77261" rx="1.3863" fill="white"/>
<rect opacity="0.1" x="121.342" y="262.428" width="53.5245" height="1.72863" rx="0.864316" fill="#D2E3FF"/>
<rect opacity="0.1" x="121.342" y="266.64" width="29.4887" height="1.72863" rx="0.864316" fill="#D2E3FF"/>
<rect x="180.397" y="255.722" width="8.716" height="8.43437" rx="4.21" fill="#FE724C"/>
<path d="M185.034 259.65H185.785V260.194H185.034V261.041H184.461V260.194H183.709V259.65H184.461V258.837H185.034V259.65Z" fill="white"/>
<path d="M98.1426 217.748C98.1426 217.748 111.127 229.229 111.315 231.189C111.502 233.15 106.727 235.504 97.0207 229.655C87.3145 223.806 84.3137 221.948 84.3137 221.948L98.1426 217.748Z" fill="#CE635B"/>
<path d="M75.1424 292.808C75.1424 292.808 81.2623 266.721 90.7828 261.158C96.866 257.6 101.523 257.572 109.006 248.602C116.429 239.706 117.264 242.505 119.836 240.616C122.408 238.727 119.104 231.76 108.953 235.881C98.4959 240.132 96.5212 238.094 99.3649 232.69C102.209 227.286 113.69 208.674 118.594 201.983C123.498 195.292 125.326 185.79 120.085 186.251C118.284 186.408 95.5237 213.768 95.5237 213.768C95.5237 213.768 93.1349 210.471 89.6649 209.033C86.0236 207.523 83.902 209.441 82.6291 208.339C81.3561 207.238 78.0555 203.588 72.9556 206.393C68.537 208.823 68.2861 207.37 64.9997 207.448C61.7133 207.525 58.531 210.469 55.4628 216.713C51.8419 224.084 50.1793 233.6 49.5265 247.268C49.0859 256.497 43.8146 271.223 38.9289 280.689L75.1424 292.808Z" fill="#FFA397"/>
<path d="M78.0543 283.273L79.8474 277.892C79.8474 277.892 68.3237 266.05 45.6189 266.615L78.0543 283.273Z" fill="#162A4D"/>
<path d="M90.8163 219.031L97.3198 211.76" stroke="#162A4D" stroke-width="2" stroke-linecap="round" stroke-linejoin="round"/>
<path d="M84.9204 208.398C84.9204 208.398 81.6034 208.127 78.0906 214.019" stroke="#162A4D" stroke-width="2" stroke-linecap="round" stroke-linejoin="round"/>
<path d="M74.0282 205.893C74.0282 205.893 70.0074 206.081 67.2412 211.683" stroke="#162A4D" stroke-width="2" stroke-linecap="round" stroke-linejoin="round"/>
<ellipse cx="59.4062" cy="277.664" rx="7.66823" ry="23.4106" transform="rotate(-68.79 59.4062 277.664)" fill="#F01543"/>
<rect x="30.7049" y="286.913" width="19.0064" height="46.8213" transform="rotate(-68.79 30.7049 286.913)" fill="#F01543"/>
<ellipse cx="52.5289" cy="295.382" rx="7.66823" ry="23.4106" transform="rotate(-68.79 52.5289 295.382)" fill="#162A4D"/>
<ellipse cx="52.5289" cy="295.382" rx="7.66823" ry="23.4106" transform="rotate(-68.79 52.5289 295.382)" stroke="white" stroke-width="2" stroke-linecap="round" stroke-linejoin="round"/>
<circle cx="71.1478" cy="287.076" r="3.87797" stroke="white" stroke-width="2" stroke-linecap="round" stroke-linejoin="round"/>
</svg>
