<svg width="328" height="272" viewBox="0 0 328 272" fill="none" xmlns="http://www.w3.org/2000/svg">
<path opacity="0.4" d="M12.223 52.2823C-5.11922 80.1736 20.5431 191.027 40.5149 230.47C63.9311 276.714 272.414 274.321 290.66 237.969C313.286 192.893 337.397 77.6399 313.457 41.7777C282.587 -4.4248 61.3084 -26.6564 12.223 52.2823Z" fill="#FCCBD5"/>
<path d="M298.491 9.03809L299.152 11.2397C299.235 11.5145 299.43 11.7418 299.689 11.8663L301.764 12.8489C302.133 13.0372 302.353 13.4287 302.321 13.8418C302.29 14.2549 302.013 14.6086 301.62 14.7389L299.419 15.3963C299.144 15.48 298.917 15.675 298.792 15.9339L297.809 18.0088C297.62 18.3755 297.23 18.5935 296.818 18.5621C296.407 18.5307 296.054 18.2562 295.923 17.865L295.265 15.6634C295.181 15.3898 294.986 15.164 294.728 15.0402L292.65 14.0541C292.283 13.865 292.065 13.4747 292.096 13.0632C292.128 12.6517 292.402 12.299 292.793 12.1676L294.995 11.5102C295.27 11.4265 295.497 11.2315 295.622 10.9726L296.604 8.89429C296.793 8.52754 297.184 8.30962 297.595 8.34098C298.007 8.37235 298.359 8.64691 298.491 9.03809Z" fill="#FCCBD5"/>
<path d="M53.454 19.618C53.454 19.618 94.7261 135.422 149.892 157.167C205.059 178.913 227.335 127.814 256.767 105.559C291.951 78.9239 324.746 94.6808 324.746 94.6808" stroke="white"/>
<path d="M86.8613 7.86709C86.8613 7.86709 103.214 65.9027 145.178 67.6386C196.355 69.7546 221.237 4.53218 221.237 4.53218" stroke="white"/>
<path d="M11.4527 129.985C11.4527 129.985 34.2526 212.361 123.131 212.276C212.009 212.19 238.87 169.11 269.5 166.505C296.816 164.19 305.794 198.799 305.794 198.799" stroke="white"/>
<path d="M29.5789 59.2945L31.1162 63.2971C31.3089 63.7976 31.7045 64.1932 32.205 64.3859L36.2076 65.9232C36.9382 66.2048 37.4201 66.907 37.4201 67.69C37.4201 68.4729 36.9382 69.1751 36.2076 69.4567L32.205 70.994C31.7047 71.1852 31.3089 71.5797 31.1162 72.0794L29.5789 76.0854C29.2988 76.8167 28.5969 77.2996 27.8138 77.2996C27.0308 77.2996 26.3288 76.8167 26.0488 76.0854L24.5114 72.0794C24.3187 71.5797 23.923 71.1852 23.4226 70.994L19.4201 69.4567C18.6895 69.1751 18.2076 68.4729 18.2076 67.69C18.2076 66.907 18.6895 66.2048 19.4201 65.9232L23.4226 64.3859C23.9232 64.1932 24.3188 63.7976 24.5114 63.2971L26.0488 59.2945C26.3288 58.5632 27.0308 58.0803 27.8138 58.0803C28.5969 58.0803 29.2988 58.5632 29.5789 59.2945Z" fill="white"/>
<path d="M290.328 133.351L291.355 136.042C291.485 136.378 291.752 136.643 292.088 136.771L294.776 137.798C295.268 137.986 295.592 138.458 295.592 138.985C295.592 139.511 295.268 139.983 294.776 140.171L292.088 141.198C291.752 141.328 291.486 141.592 291.355 141.928L290.328 144.619C290.139 145.11 289.666 145.433 289.14 145.433C288.614 145.433 288.142 145.11 287.952 144.619L286.925 141.928C286.794 141.592 286.528 141.328 286.192 141.198L283.504 140.171C283.013 139.983 282.688 139.511 282.688 138.985C282.688 138.458 283.013 137.986 283.504 137.798L286.192 136.771C286.529 136.643 286.795 136.378 286.925 136.042L287.952 133.351C288.142 132.86 288.614 132.536 289.14 132.536C289.666 132.536 290.139 132.86 290.328 133.351Z" fill="white"/>
<path d="M205.131 7.31929L205.911 9.34968C206.008 9.6037 206.208 9.8043 206.462 9.90093L208.489 10.6816C208.86 10.8236 209.105 11.1797 209.105 11.5769C209.105 11.9742 208.86 12.3303 208.489 12.4723L206.462 13.2495C206.209 13.3473 206.009 13.5475 205.911 13.8008L205.131 15.8312C204.989 16.2022 204.632 16.4472 204.235 16.4472C203.838 16.4472 203.482 16.2022 203.34 15.8312L202.563 13.7974C202.464 13.5445 202.264 13.3446 202.011 13.2461L199.981 12.4689C199.61 12.3269 199.365 11.9708 199.365 11.5735C199.365 11.1763 199.61 10.8202 199.981 10.6782L202.011 9.89751C202.265 9.79977 202.465 9.59955 202.563 9.34625L203.34 7.31586C203.483 6.94513 203.839 6.70081 204.236 6.70157C204.634 6.70233 204.989 6.94801 205.131 7.31929Z" fill="white"/>
<path d="M12.1135 193.095L13.7433 197.347C13.9493 197.878 14.3695 198.297 14.9006 198.501L19.1531 200.134C19.9393 200.428 20.4607 201.178 20.4607 202.017C20.4607 202.857 19.9393 203.607 19.1531 203.901L14.9006 205.53C14.3693 205.736 13.9492 206.156 13.7433 206.688L12.1135 210.94C11.8203 211.726 11.0695 212.248 10.2303 212.248C9.39119 212.248 8.64038 211.726 8.34717 210.94L6.71395 206.688C6.51024 206.156 6.09102 205.736 5.56009 205.53L1.30757 203.901C0.521332 203.607 0 202.857 0 202.017C0 201.178 0.521332 200.428 1.30757 200.134L5.56009 198.501C6.09081 198.297 6.51017 197.878 6.71395 197.347L8.34717 193.095C8.64038 192.308 9.39119 191.787 10.2303 191.787C11.0695 191.787 11.8203 192.308 12.1135 193.095Z" fill="#FCCBD5"/>
<path d="M318.952 218.891L320.722 223.509C320.944 224.087 321.401 224.544 321.979 224.766L326.598 226.536C327.442 226.859 328 227.669 328 228.573C328 229.478 327.442 230.288 326.598 230.611L321.979 232.384C321.401 232.606 320.944 233.063 320.722 233.641L318.952 238.256C318.629 239.101 317.819 239.659 316.915 239.659C316.011 239.659 315.2 239.101 314.878 238.256L313.104 233.641C312.882 233.063 312.425 232.606 311.847 232.384L307.232 230.611C306.388 230.288 305.83 229.478 305.83 228.573C305.83 227.669 306.388 226.859 307.232 226.536L311.847 224.766C312.425 224.544 312.882 224.087 313.104 223.509L314.878 218.891C315.2 218.046 316.011 217.488 316.915 217.488C317.819 217.488 318.629 218.046 318.952 218.891Z" fill="#FCCBD5"/>
<path opacity="0.6" d="M51.9851 110.79H162.948L150.622 264.446C150.333 268.023 147.346 270.779 143.757 270.78H71.1899C67.6069 270.772 64.6289 268.017 64.3421 264.446L51.9851 110.79Z" fill="white"/>
<path d="M125.795 270.78H71.19C67.607 270.772 64.629 268.017 64.3421 264.446L56.717 169.702" stroke="#F01543" stroke-width="2" stroke-linecap="round" stroke-linejoin="round"/>
<path d="M61.9249 156.431L60.5553 139.596C60.5553 139.596 72.991 133.125 92.2301 140.541C118.68 150.744 125.785 129.851 154.412 139.014L152.994 156.596L61.9249 156.431Z" fill="#FE724C"/>
<ellipse cx="103.124" cy="198.813" rx="1.77359" ry="5.34817" transform="rotate(-70 103.124 198.813)" fill="#CA0B33"/>
<rect x="152.422" y="47.735" width="10.6963" height="158.826" transform="rotate(20 152.422 47.735)" fill="#CA0B33"/>
<path d="M117.43 159.619C114.958 158.718 113.099 157.393 112.856 156.435L105.939 175.434C105.597 176.355 107.586 177.92 110.36 178.93C113.133 179.94 115.657 180.012 115.992 179.091L122.871 160.194C121.984 160.684 119.799 160.482 117.43 159.619Z" fill="#F01543"/>
<path d="M132.29 118.806C129.815 117.905 127.955 116.577 127.712 115.622L120.799 134.621C120.457 135.539 122.443 137.103 125.216 138.113C127.99 139.123 130.516 139.199 130.849 138.278L137.714 119.378C136.84 119.867 134.656 119.669 132.29 118.806Z" fill="#F01543"/>
<path d="M147.143 77.9891C144.671 77.0886 142.812 75.7636 142.568 74.8049L135.659 93.8042C135.317 94.7253 137.306 96.29 140.079 97.3001C142.853 98.3101 145.376 98.382 145.712 97.4644L152.59 78.5643C151.697 79.054 149.512 78.852 147.143 77.9891Z" fill="#F01543"/>
<ellipse cx="157.449" cy="49.5615" rx="1.77359" ry="5.34817" transform="rotate(-70 157.449 49.5615)" fill="#F01543"/>
<path d="M107.466 149.536C87.8165 142.373 71.9637 144.838 61.3084 148.82L70.327 261.077C70.4771 262.979 72.0651 264.447 73.9735 264.446H140.959C142.868 264.445 144.456 262.979 144.609 261.077L153.398 151.631C142 154.843 126.038 156.308 107.466 149.536Z" fill="#EA5831"/>
<circle cx="89.9461" cy="254.705" r="6.10829" fill="#FB9C83"/>
<circle cx="107.466" cy="247.285" r="6.10829" fill="#FB9C83"/>
<circle cx="106.378" cy="233.542" r="6.10829" fill="#FB9C83"/>
<circle cx="121.559" cy="253.397" r="6.10829" fill="#FB9C83"/>
<circle cx="135.269" cy="249.552" r="6.10829" fill="#FB9C83"/>
<circle cx="79.4279" cy="228.389" r="6.10829" fill="#FB9C83"/>
<circle cx="91.6445" cy="239.65" r="6.10829" fill="#FB9C83"/>
<circle cx="119.686" cy="223.941" r="6.10829" fill="#FB9C83"/>
<circle cx="121.559" cy="237.335" r="6.10829" fill="#FB9C83"/>
<circle cx="135.269" cy="216.169" r="6.10829" fill="#FB9C83"/>
<circle cx="136.395" cy="233.542" r="6.10829" fill="#FB9C83"/>
<circle cx="77.7262" cy="244.885" r="6.10829" fill="#FB9C83"/>
<path opacity="0.6" d="M49.1364 110.267L50.797 130.954H164.136L165.796 110.267H49.1364Z" fill="white"/>
<rect x="42.9939" y="110.267" width="128.945" height="2.89322" rx="1.44661" fill="#F01543"/>
<path d="M68.468 131.269H146.14" stroke="#F01543" stroke-width="2" stroke-linecap="round" stroke-linejoin="round"/>
<path d="M58.1824 110.267H71.2892V118.313C71.2892 121.934 68.3537 124.87 64.7324 124.87C61.1112 124.87 58.1756 121.934 58.1756 118.313V110.267H58.1824Z" fill="#F01543"/>
<path d="M210.958 181.227C210.958 181.227 209.931 129.16 234.432 110.831C258.934 92.5031 270.726 109.664 270.069 115.375C269.411 121.086 260.482 122.839 266.357 128.838C272.233 134.837 276.612 136.627 269.196 141.065C261.779 145.502 265.898 151.525 273.109 151.795C280.32 152.066 283.812 165.149 268.538 167.343C253.264 169.538 241.335 183.881 241.335 183.881L210.958 181.227Z" fill="#FE724C"/>
<path d="M219.015 181.912C219.015 181.912 220.976 136.918 251.521 115.358" stroke="white" stroke-width="2" stroke-linecap="round" stroke-linejoin="round"/>
<path d="M223.157 182.118C223.157 182.118 228.252 146.166 264.758 134.83" stroke="white" stroke-width="2" stroke-linecap="round" stroke-linejoin="round"/>
<path d="M231.036 182.977C231.036 182.977 238.432 159.92 271.812 156.431" stroke="white" stroke-width="2" stroke-linecap="round" stroke-linejoin="round"/>
<path d="M233.594 157.431L258.283 154.038" stroke="white" stroke-width="2" stroke-linecap="round" stroke-linejoin="round"/>
<path d="M245.94 144.468L249.35 127.455" stroke="white" stroke-width="2" stroke-linecap="round" stroke-linejoin="round"/>
<path d="M230.091 141.061L228.667 126.075" stroke="white" stroke-width="2" stroke-linecap="round" stroke-linejoin="round"/>
<path d="M156.395 163.053C156.395 163.053 155.97 154.99 165.557 153.699C173.631 152.61 167.156 141.63 177.777 141.921C188.398 142.212 186.042 137.73 190.757 135.158C194.359 133.193 199.813 137.339 203.956 133.813C206.391 131.758 212.903 130.358 216.395 135.922C218.898 139.911 227.304 136.901 229.557 143.848C231.235 149.012 242.068 140.503 243.376 147.046C244.684 153.589 251.669 148.416 253.703 153.699C255.736 158.982 264.902 155.188 264.758 163.053H156.395Z" fill="white"/>
<path d="M178.28 160.376C176.867 158.496 176.454 156.047 177.174 153.809C177.174 153.809 179.318 156.298 178.28 160.376Z" fill="#FCCBD5"/>
<path d="M218.018 155.89C216.604 154.01 216.192 151.56 216.912 149.32C216.912 149.32 219.056 151.782 218.018 155.89Z" fill="#FCCBD5"/>
<path d="M210.266 150.412C208.065 149.58 206.405 147.73 205.815 145.451C205.815 145.451 208.965 146.392 210.266 150.412Z" fill="#FCCBD5"/>
<path d="M182.132 149.306C179.93 148.474 178.27 146.624 177.681 144.345C177.681 144.345 180.828 145.304 182.132 149.306Z" fill="#FCCBD5"/>
<path d="M223.459 148.423C221.257 147.588 219.598 145.737 219.008 143.458C219.008 143.458 222.154 144.417 223.459 148.423Z" fill="#FCCBD5"/>
<path d="M188.658 150.775C190.541 149.36 192.994 148.947 195.236 149.669C195.236 149.669 192.736 151.812 188.658 150.775Z" fill="#FCCBD5"/>
<path d="M205.822 140.089C207.702 138.677 210.151 138.265 212.389 138.983C212.389 138.983 209.9 141.126 205.822 140.089Z" fill="#FCCBD5"/>
<path d="M193.284 140.856C195.635 140.66 197.934 141.621 199.447 143.431C199.447 143.431 196.181 143.907 193.284 140.856Z" fill="#FCCBD5"/>
<path d="M204.432 154.449C206.777 154.257 209.069 155.216 210.578 157.02C210.578 157.02 207.329 157.503 204.432 154.449Z" fill="#FCCBD5"/>
<path d="M191.942 158.383C192.999 156.282 195.011 154.825 197.338 154.476C197.338 154.476 196.057 157.503 191.942 158.383Z" fill="#FCCBD5"/>
<path d="M162.044 161.026C163.101 158.925 165.114 157.468 167.44 157.119C167.44 157.119 166.16 160.136 162.044 161.026Z" fill="#FCCBD5"/>
<path d="M225.969 154.545C227.026 152.443 229.038 150.986 231.365 150.638C231.365 150.638 230.084 153.665 225.969 154.545Z" fill="#FCCBD5"/>
<path d="M143.907 270.78H231.039L241.335 163.053H133.612L143.907 270.78Z" fill="#CA0B33"/>
<path d="M174.805 163.053L166.074 204.709H137.594L133.612 163.053H174.805Z" fill="#162A4D"/>
<ellipse cx="241.182" cy="160.725" rx="20.7764" ry="21.6153" transform="rotate(-57.43 241.182 160.725)" fill="#FE724C"/>
<ellipse cx="241.794" cy="159.081" rx="19.3144" ry="21.7556" transform="rotate(-57.43 241.794 159.081)" fill="#FFBA40"/>
<path d="M225.267 151.556C225.267 151.556 220.915 164.929 235.381 172.606C250.155 180.447 266.487 161.786 253.816 149.666C241.144 137.545 228.105 147.645 229.475 159.095C230.584 168.549 245.28 174.222 251.84 163.991C258.4 153.761 241.798 145.684 236.09 152.008C230.954 157.698 237.185 164.166 241.671 164.132C248.032 164.087 248.091 154.23 241.952 154.668" stroke="white" stroke-width="2" stroke-linecap="round" stroke-linejoin="round"/>
<path d="M185.101 270.78H272.233L282.529 163.053H174.805L185.101 270.78Z" fill="#F01543"/>
<path d="M282.529 163.053L278.547 204.709H178.787L174.805 163.053H282.529Z" fill="#162A4D"/>
<circle cx="228.667" cy="230.515" r="20.6839" fill="white"/>
<path d="M235.151 219.209V228.279C235.151 229.999 234.468 231.648 233.252 232.865C232.036 234.081 230.386 234.764 228.667 234.764V234.764C225.085 234.764 222.182 231.861 222.182 228.279V219.209" stroke="#F01543" stroke-width="2" stroke-linecap="round" stroke-linejoin="round"/>
<path d="M230.577 219.209V251.045" stroke="#F01543" stroke-width="2" stroke-linecap="round" stroke-linejoin="round"/>
<path d="M226.753 251.045V219.209" stroke="#F01543" stroke-width="2" stroke-linecap="round" stroke-linejoin="round"/>
<path d="M143.325 264.679H258.284" stroke="white" stroke-width="2" stroke-linecap="round" stroke-linejoin="round"/>
<path d="M301.901 201.682H194.174L174.805 163.053H282.529L301.901 201.682Z" fill="white"/>
<path d="M155.429 201.682H114.239L133.612 163.053H174.805L155.429 201.682Z" fill="white"/>
<path d="M137.669 163.053H235.268" stroke="#F01543" stroke-width="2" stroke-linecap="round" stroke-linejoin="round"/>
<path d="M173.041 126.136C173.041 121.428 178.972 121.428 178.972 116.721C178.972 112.013 173.041 112.009 173.041 107.301C173.041 102.593 178.972 102.593 178.972 97.8856C178.972 93.1777 173.041 93.1742 173.041 88.4663C173.041 83.7584 178.972 83.755 178.972 79.0471" stroke="white" stroke-width="5" stroke-linecap="round" stroke-linejoin="round"/>
<path d="M199.727 126.136C199.727 121.428 205.658 121.428 205.658 116.721C205.658 112.013 199.727 112.009 199.727 107.301C199.727 102.593 205.658 102.593 205.658 97.8856C205.658 93.1777 199.727 93.1742 199.727 88.4663C199.727 83.7584 205.658 83.755 205.658 79.0471" stroke="white" stroke-width="5" stroke-linecap="round" stroke-linejoin="round"/>
<path d="M226.414 126.136C226.414 121.428 232.344 121.428 232.344 116.721C232.344 112.013 226.414 112.009 226.414 107.301C226.414 102.593 232.344 102.593 232.344 97.8856C232.344 93.1777 226.414 93.1742 226.414 88.4663C226.414 83.7584 232.344 83.755 232.344 79.0471" stroke="white" stroke-width="5" stroke-linecap="round" stroke-linejoin="round"/>
<path d="M69.0466 51.4605C68.6323 53.0971 65.8076 54.0319 64.3524 54.4393L63.3252 54.7338C61.038 55.3809 60.3635 52.4363 59.7951 50.9229C59.4527 50.043 59.1788 49.1493 58.9186 48.2488C58.2433 45.915 57.7342 43.5363 57.395 41.1305C57.251 40.3049 57.6344 39.4766 58.3571 39.0522C58.7844 38.802 59.2457 38.6151 59.7267 38.4975C60.1581 38.3777 60.6237 38.2715 61.0962 38.1551C62.0618 37.888 63.041 37.6689 64.0785 37.3882C64.8283 37.1896 65.8486 37.2341 66.078 38.0935C66.4821 39.6342 62.928 40.3156 61.8495 40.6922C61.557 40.7749 61.3644 41.0537 61.3907 41.3565C61.5207 42.311 61.6989 43.2584 61.9248 44.1949C61.9573 44.3297 62.0443 44.445 62.1651 44.5132C62.2858 44.5813 62.4295 44.5963 62.5617 44.5544L63.7977 44.212C64.2702 44.0819 64.7359 43.9073 65.2323 43.7738C66.0164 43.5615 67.0847 43.6402 67.3244 44.5476C67.6667 45.7939 65.9068 46.3554 64.9858 46.6019L64.1127 46.8382C63.6436 46.9683 62.6267 47.0573 62.8219 47.7558C63.1381 48.8458 63.513 49.9179 63.9449 50.9674L63.9826 51.1044C64.0648 51.3989 64.1024 51.7892 64.5202 51.683C65.4515 51.4263 66.0096 50.447 66.9443 50.1936C67.6462 50.0053 68.8754 50.1149 69.0911 50.9298C69.1258 51.1074 69.1103 51.2911 69.0466 51.4605Z" fill="#F01543"/>
<path d="M82.198 49.526C81.4276 49.1836 80.9517 48.177 80.486 47.5127C79.8012 46.5164 76.0726 40.6649 75.3501 40.5416C75.2542 40.5656 75.2679 40.7299 75.2611 40.8052C75.389 42.9515 75.7273 45.0799 76.2712 47.1601C76.6409 48.6871 77.2504 50.1697 75.0831 50.7072C73.9189 50.9983 73.0595 50.6388 72.7616 49.4575C72.6521 49.0261 72.6247 48.5878 72.5322 48.1598C71.8748 45.0783 71.2722 41.6886 71.2311 38.4907C71.2311 37.6004 71.149 36.8198 72.0358 36.2617C72.2697 36.104 72.5292 35.9882 72.8027 35.9193C73.3744 35.8 73.9658 35.8129 74.5318 35.957C78.6782 36.9122 81.0133 41.9249 81.4995 42.0789C81.5885 42.0344 81.5543 41.8769 81.544 41.829C81.4173 39.8192 81.1057 37.8093 80.8318 35.844C80.7154 35.012 80.2703 33.906 80.9243 33.163C81.2786 32.7895 81.7406 32.5358 82.2459 32.4372C83.4443 32.1769 84.3242 32.4714 84.5708 33.639C84.742 34.4402 84.7522 35.2619 84.8584 36.07C85.3337 39.286 85.5319 42.537 85.4507 45.7871C85.4165 46.6567 85.4952 47.7455 85.1699 48.557C84.9147 49.1309 84.3864 49.5368 83.7661 49.6356C83.2449 49.765 82.6961 49.7267 82.198 49.526Z" fill="#F01543"/>
<path fill-rule="evenodd" clip-rule="evenodd" d="M94.233 29.9925C94.411 30.958 95.6334 31.1395 96.4894 30.9854C97.3453 30.8313 98.4273 30.239 98.2595 29.2598C98.0918 28.2805 96.8694 28.1196 96.0066 28.2805C95.1438 28.4414 94.055 29.0269 94.233 29.9925ZM99.9671 34.3063C99.671 33.5404 99.3888 32.8108 98.4273 32.6631C98.0922 32.6018 97.7488 32.6018 97.4138 32.6631C96.5099 32.8241 95.5649 33.4267 95.7429 34.3922C95.841 34.7766 95.9763 35.1504 96.1469 35.5084C96.8247 37.0206 97.3068 38.613 97.5816 40.2471C97.8101 41.3747 97.8379 42.5338 97.6637 43.6711C97.5439 44.373 96.8077 45.9001 96.0305 46.0473C95.4577 46.1552 95.2067 45.6915 94.9165 45.1552C94.5163 44.4157 94.0414 43.5383 92.545 43.832C91.7643 43.9861 90.6104 44.599 90.7953 45.5166C91.0324 46.4019 91.5502 47.1864 92.271 47.7524C93.4472 48.678 94.9755 49.0297 96.438 48.7111C97.7407 48.4763 98.9377 47.8407 99.8619 46.893C100.129 46.6578 100.342 46.3683 100.488 46.0439C101.94 44.2668 101.831 41.7229 101.471 39.6206C101.2 37.8284 100.708 36.0768 100.006 34.4059C99.9928 34.3727 99.9799 34.3394 99.9671 34.3063Z" fill="#F01543"/>
<path fill-rule="evenodd" clip-rule="evenodd" d="M111.205 42.2056C114.79 41.6544 118.122 38.5146 117.683 34.7757C117.286 31.3894 113.674 29.5268 110.421 29.9891C109.394 30.0883 108.387 30.3327 107.429 30.7149C104.881 31.9065 103.988 34.6901 104.392 37.1896C104.953 40.6546 107.62 42.7569 111.205 42.2056ZM110.589 32.7111C112.582 32.4132 113.619 34.0122 113.821 35.4947C114.088 37.3539 112.52 39.3364 110.61 39.6171C109.326 39.8054 108.425 37.4566 108.298 36.6246C107.987 34.5634 108.302 33.0535 110.589 32.7111Z" fill="#F01543"/>
<path d="M126.99 30.4444C127.222 29.2284 127.525 28.0269 127.897 26.8459C128.168 26.0405 128.907 25.4852 129.756 25.4489C130.499 25.3805 131.773 25.6886 131.848 26.5549C131.863 26.6819 131.849 26.8106 131.807 26.9315C131.439 28.0256 131.126 29.1375 130.869 30.263C130.222 33.6527 129.804 37.1108 128.887 40.4457C128.544 41.538 128.202 42.2296 126.945 42.3597C126.209 42.4385 125.059 42.1851 124.959 41.2777C124.867 40.4389 125.356 39.6308 125.555 38.7646C125.671 38.2578 126.339 34.9127 126.308 34.6114C126.308 34.6114 126.308 34.5634 126.281 34.5669C124.401 33.6321 121.957 31.1429 120.601 29.5371C120.313 29.1947 119.916 28.7462 119.858 28.2805C119.762 27.4656 120.916 26.8836 121.631 26.8014C121.989 26.7669 122.351 26.8065 122.693 26.9178C123.521 27.1814 123.99 28.0511 124.524 28.6298C125.145 29.3244 125.808 29.9797 126.51 30.5917C126.723 30.7526 126.894 30.7355 126.99 30.4444Z" fill="#F01543"/>
<path d="M152.905 23.9527C153.7 23.9253 154.826 24.2951 154.85 25.1819C154.874 25.9523 153.778 26.572 153.302 27.1027C152.142 28.4517 151.142 29.9651 150.125 31.3895C149.896 31.7045 149.375 32.0742 149.392 32.4988C149.468 34.2108 149.444 35.8953 149.516 37.6039C149.521 37.9402 149.552 38.2756 149.608 38.6071C149.667 39.0416 149.694 39.48 149.687 39.9185C149.724 40.8053 148.694 41.1545 147.975 41.1887C146.078 41.2812 145.801 39.6582 145.722 38.162C145.629 36.4089 145.606 34.6251 145.513 32.872C145.48 32.5304 145.353 32.2045 145.147 31.9304C144.096 30.5335 141.144 26.5343 141.038 24.8977C140.973 23.915 142.045 23.4973 142.89 23.4459C143.456 23.3886 144.025 23.5224 144.506 23.826C144.921 24.1307 144.999 24.6203 145.171 25.0552C145.373 25.5825 146.992 28.8215 147.482 28.8215C148.252 28.7736 149.95 24.0486 152.905 23.9527Z" fill="#F01543"/>
<path fill-rule="evenodd" clip-rule="evenodd" d="M163.739 38.9666C167.724 38.8673 171.415 35.2688 171.46 31.3895C171.501 28.0922 167.889 25.8495 164.776 25.8461C160.887 25.8427 157.689 29.1708 157.74 33.074C157.734 34.6571 158.368 36.1756 159.497 37.285C160.626 38.3944 162.156 39.0008 163.739 38.9666ZM163.951 28.777C165.872 27.8834 167.467 30.1021 167.467 31.4716C167.461 33.1562 165.766 36.2412 163.794 36.2514C162.376 36.2583 161.667 34.2313 161.667 33.1048C161.654 31.6086 162.458 29.4618 163.951 28.777Z" fill="#F01543"/>
<path d="M188.141 30.9409C187.169 35.0291 184.813 38.8159 180.174 38.6721C178.219 38.6605 176.44 37.5402 175.585 35.7823C174.538 33.5568 174.788 30.7047 174.846 28.3148C174.877 26.9452 175.363 26.1235 176.993 26.168C178.4 26.209 178.996 26.8527 178.951 28.1744C178.931 28.7119 178.814 29.2735 178.797 29.835C178.749 31.2388 178.424 35.8851 180.591 35.9672C182.971 36.0597 184.471 30.5095 184.556 28.7325C184.631 27.1883 184.577 25.7023 186.751 25.8187C187.912 25.8804 188.774 26.4008 188.706 27.5957C188.612 28.7247 188.423 29.8437 188.141 30.9409Z" fill="#F01543"/>
<path fill-rule="evenodd" clip-rule="evenodd" d="M200.499 36.982C200.174 36.4218 199.849 35.8627 199.419 35.368C199.32 35.2852 199.263 35.1619 199.265 35.0325C199.292 34.9157 199.372 34.8182 199.481 34.7688C201.166 33.6492 202.347 32.0708 202.535 30.0644C202.826 27.0102 200.361 24.8908 197.28 24.6443C196.081 24.5484 193.342 24.8395 192.657 25.894C192.531 26.1003 192.464 26.337 192.462 26.5788C192.334 28.5561 192.278 30.3937 192.221 32.2708C192.191 33.2574 192.161 34.2548 192.12 35.2893C192.084 36.2189 191.992 37.4086 191.909 38.4798C191.871 38.9631 191.836 39.4223 191.808 39.8226C191.736 40.9901 192.332 41.6407 193.52 41.7263C193.993 41.7674 194.468 41.6736 194.89 41.4558C195.485 41.1271 195.574 40.5929 195.65 39.9903C195.745 39.221 195.803 38.4335 195.861 37.6542C195.878 37.4207 195.895 37.188 195.913 36.9567L195.914 36.9517C195.921 36.877 195.937 36.7102 196.054 36.7102C196.202 36.7207 196.452 37.1224 196.801 37.6817C197.59 38.9508 198.885 41.0316 200.649 41.1956C201.498 41.2743 203.018 40.7813 202.703 39.7198C202.579 39.2727 202.262 39.0496 201.935 38.8197C201.722 38.6694 201.504 38.5162 201.333 38.2955C201.019 37.8786 200.758 37.43 200.499 36.982ZM196.31 27.6368C196.345 27.2397 196.793 27.226 197.136 27.2568V27.267C198.464 27.3732 198.776 28.9756 198.687 29.9959C198.564 31.2612 197.77 32.3627 196.608 32.8789C196.546 32.9007 196.48 32.9112 196.413 32.9097C196.194 32.8789 196.126 32.7248 196.126 32.5365C196.132 31.4785 196.17 30.3999 196.228 29.3488C196.263 28.664 196.28 28.3216 196.31 27.6368Z" fill="#F01543"/>
<path d="M229.197 31.0881C229.745 34.7312 229.8 38.429 230.101 42.0961C230.183 42.8938 230.635 43.089 230.464 44.082C230.255 45.2838 229.416 45.657 228.263 45.4515C226.992 45.2358 226.715 44.7188 226.551 43.6471C226.188 41.0963 226.16 38.0558 225.811 35.5598C225.77 35.3407 225.619 35.1969 225.469 35.4845C224.763 36.5116 224.356 37.5628 223.616 38.703C223.229 39.309 222.589 39.3535 221.904 39.2508C221.767 39.2341 221.632 39.2055 221.5 39.1652C220.357 38.8228 220.131 37.758 219.764 36.7856C219.353 35.7344 219.035 34.6251 218.617 33.55C218.545 33.3514 218.333 33.2795 218.275 33.55C218.162 34.0361 218.004 34.6251 217.881 35.1523C217.576 36.4808 217.248 37.6689 216.946 38.97C216.732 39.9294 216.442 40.8704 216.08 41.7845C215.868 42.3221 215.69 42.7261 215.087 42.9281C214.734 43.0418 214.359 43.0734 213.992 43.0205C213.187 42.9178 212.143 42.4111 212.259 41.4798C212.277 41.3625 212.308 41.2476 212.352 41.1374C212.678 40.3517 212.932 39.538 213.112 38.7064C213.899 35.2243 214.615 31.3963 216.566 28.2874C216.96 27.7498 217.734 27.6026 218.45 27.6882C219.175 27.7859 219.823 28.1946 220.223 28.8078C221.199 30.2459 221.716 31.8585 222.322 33.4644C222.404 33.7348 222.596 33.7862 222.784 33.5328C223.407 32.6768 225.106 30.1877 225.927 29.746C226.347 29.5216 226.827 29.4388 227.297 29.5097C228.173 29.6638 229.057 30.2835 229.197 31.0881Z" fill="#F01543"/>
<path d="M242.605 34.3409C241.972 34.2142 241.376 34.0464 240.743 33.9232C240.606 33.877 240.457 33.8914 240.332 33.9627C240.207 34.0341 240.118 34.1555 240.089 34.2964C239.962 34.7415 239.887 35.214 239.774 35.6659C239.647 36.1898 239.493 36.7342 239.39 37.2615C239.353 37.4464 239.39 37.645 239.606 37.6861C239.894 37.7443 241.095 37.2375 242.034 37.4258C242.828 37.5868 243.804 38.2168 243.619 39.1104C243.348 40.4183 240.195 40.48 239.072 40.5656C238.826 40.5912 238.627 40.7773 238.586 41.021C238.345 42.3532 238.175 43.6973 238.076 45.0475C238.048 45.3043 237.897 45.5851 238.274 45.6604C238.791 45.7597 239.36 45.7289 239.88 45.8316C240.678 45.9925 241.76 46.5711 241.565 47.5435C241.277 48.9439 238.791 48.4885 237.798 48.2968C236.805 48.1051 234.83 47.7284 234.347 46.78C234.1 46.2835 234.261 45.5508 234.285 45.0064C234.384 43.2631 234.589 41.5274 234.898 39.8089C235.34 37.4121 235.925 35.0496 236.384 32.6768C236.603 31.5812 236.839 30.6225 238.168 30.8142C239.695 31.0265 240.089 31.1292 242.116 31.5298C242.81 31.6171 243.483 31.833 244.098 32.1667C244.571 32.4264 244.841 32.9451 244.783 33.4815C244.622 34.3409 243.379 34.4778 242.605 34.3409Z" fill="#F01543"/>
<path fill-rule="evenodd" clip-rule="evenodd" d="M258.04 43.9488C258.154 42.7839 258.267 41.6199 258.345 40.456C258.347 40.4269 258.349 40.3972 258.351 40.3669C258.471 38.6207 258.72 34.9922 256.428 34.447C256.112 34.3785 255.788 34.3588 255.466 34.3888C252.546 35.5039 250.683 38.7692 249.148 41.4593C248.991 41.7345 248.837 42.0036 248.686 42.2638C248.585 42.4349 248.494 42.6056 248.403 42.7737C248.114 43.3122 247.839 43.8246 247.317 44.2394C246.965 44.5205 246.935 44.6744 246.877 44.9784C246.865 45.041 246.852 45.1101 246.834 45.1879C246.729 45.6751 246.329 46.1439 245.944 46.5943C245.588 47.011 245.245 47.4118 245.163 47.7969C244.961 48.7385 246.016 49.3959 246.81 49.5705C248.133 49.864 248.891 48.9149 249.529 48.118C249.992 47.5388 250.39 47.0399 250.895 47.1566C251.69 47.3345 252.153 47.4451 252.84 47.6092C252.973 47.641 253.114 47.6747 253.268 47.7113C253.899 47.8603 253.847 48.5606 253.786 49.383C253.7 50.5445 253.595 51.9494 255.373 52.3884C256.229 52.5973 257.397 52.4569 257.643 51.4811C257.749 51.0383 257.712 50.5847 257.677 50.1389C257.655 49.8747 257.634 49.6131 257.643 49.3582C257.689 47.5501 257.865 45.7482 258.04 43.9488ZM252.059 44.2257C252.245 43.8252 252.468 43.4425 252.723 43.0822C252.751 43.0385 252.807 42.9479 252.881 42.8271C253.255 42.2192 254.099 40.8469 254.216 40.8498C254.298 40.9388 254.055 44.2977 253.98 44.6161C253.957 44.7376 253.885 44.8441 253.78 44.9093C253.675 44.9745 253.547 44.9924 253.429 44.9585L252.401 44.7119C252.29 44.6963 252.19 44.6352 252.125 44.543C252.06 44.4509 252.036 44.3361 252.059 44.2257Z" fill="#F01543"/>
<path d="M269.925 51.0633C270.695 51.2825 271.695 52.0118 271.442 52.8883C271.099 54.0148 269.572 53.7888 268.703 53.5388C267.333 53.1451 265.892 52.7753 264.471 52.5117C263.878 52.4021 263.262 52.3815 262.68 52.2275C261.797 51.9912 261.016 51.3749 261.269 50.4025C261.376 50.0517 261.506 49.7085 261.66 49.3753C262.295 47.7664 262.819 46.1156 263.228 44.4346C263.693 42.6473 264.067 40.8326 264.536 39.0419C264.827 37.9326 265.827 37.6723 266.912 37.9497C268.216 38.2921 268.744 39.0248 268.408 40.2471C267.905 42.0995 267.463 43.9929 266.96 45.8453C266.617 47.1121 266.135 48.3173 265.789 49.5808C265.727 49.8067 265.946 50.0122 266.159 50.0704C267.408 50.4333 268.665 50.7038 269.925 51.0633Z" fill="#F01543"/>
</svg>
