<svg width="327" height="302" viewBox="0 0 327 302" fill="none" xmlns="http://www.w3.org/2000/svg">
<path opacity="0.4" d="M66.6682 53.4535C40.4809 73.9899 10.7487 211.205 30.9867 260.14C49.9892 306.098 185.734 304.326 253.043 298.149C320.352 291.971 331.313 258.487 325.74 193.6C320.566 133.265 303.87 41.8183 249.53 37.7363C183.972 32.8084 91.7709 33.7736 66.6682 53.4535Z" fill="#FCCBD5"/>
<path d="M41.548 101.957C41.548 101.957 123.1 63.3058 169.044 158.273C214.989 253.24 323.665 176.994 323.665 176.994" stroke="white"/>
<path d="M124.307 38.898C124.307 38.898 187.991 32.131 208.896 104.884C229.801 177.637 319.383 144.791 319.383 144.791" stroke="white"/>
<path d="M24.9707 231.703C25.9043 242.798 27.8418 252.534 30.9866 260.133C49.9891 306.098 185.734 304.326 253.043 298.149C305.649 293.337 323.816 271.817 326.603 231.703H24.9707Z" fill="#F5B9A9"/>
<path d="M184.607 231.991C184.607 231.991 200.911 245.865 242.822 250.295C284.734 254.724 323.676 250.906 323.676 250.906" stroke="white"/>
<path d="M282.898 292.54C282.898 292.54 214.041 297.103 173.776 272.091C126.873 242.942 28.1332 251.453 28.1332 251.453" stroke="white"/>
<path d="M25.6306 237.996C25.6306 237.996 157.385 234.743 178.56 249.603C232.528 287.475 312.458 273.895 312.458 273.895" stroke="white"/>
<path d="M253.089 15.9645L254.163 18.7724C254.298 19.122 254.575 19.3985 254.924 19.534L257.732 20.6116C258.234 20.8126 258.564 21.2991 258.564 21.84C258.564 22.381 258.234 22.8674 257.732 23.0685L254.924 24.1425C254.576 24.2802 254.3 24.5559 254.163 24.9041L253.089 27.712C252.888 28.2143 252.401 28.5435 251.86 28.5435C251.319 28.5435 250.833 28.2143 250.632 27.712L249.554 24.9041C249.419 24.5545 249.142 24.278 248.793 24.1425L245.981 23.0755C245.479 22.8745 245.15 22.388 245.15 21.847C245.15 21.3061 245.479 20.8196 245.981 20.6186L248.789 19.541C249.14 19.4078 249.417 19.1305 249.551 18.7794L250.628 15.9715C250.827 15.4664 251.313 15.1336 251.856 15.1321C252.399 15.1305 252.887 15.4605 253.089 15.9645Z" fill="#D2E3FF"/>
<path d="M9.30265 186.022L10.5592 189.297C10.7164 189.705 11.039 190.027 11.4472 190.185L14.7219 191.441C15.3192 191.671 15.7132 192.245 15.7132 192.885C15.7132 193.525 15.3192 194.1 14.7219 194.33L11.4472 195.586C11.0416 195.742 10.7196 196.06 10.5592 196.464L9.30265 199.735C9.07248 200.332 8.49842 200.726 7.85834 200.726C7.21825 200.726 6.64419 200.332 6.41402 199.735L5.15748 196.464C5.00029 196.054 4.67619 195.729 4.26597 195.572L0.991249 194.33C0.393982 194.1 0 193.525 0 192.885C0 192.245 0.393982 191.671 0.991249 191.441L4.26246 190.185C4.67221 190.029 4.99633 189.706 5.15397 189.297L6.41051 186.022C6.63943 185.422 7.21471 185.026 7.85658 185.026C8.49846 185.026 9.07373 185.422 9.30265 186.022Z" fill="#D2E3FF"/>
<path d="M311.795 193.656L312.771 196.2C312.891 196.526 313.147 196.782 313.473 196.902L316.014 197.878C316.479 198.056 316.786 198.502 316.786 199C316.786 199.497 316.479 199.943 316.014 200.121L313.473 201.097C313.149 201.219 312.893 201.475 312.771 201.799L311.795 204.34C311.617 204.805 311.171 205.112 310.674 205.112C310.176 205.112 309.73 204.805 309.552 204.34L308.576 201.799C308.453 201.476 308.197 201.22 307.874 201.097L305.333 200.121C304.868 199.943 304.561 199.497 304.561 199C304.561 198.502 304.868 198.056 305.333 197.878L307.874 196.902C308.198 196.78 308.454 196.525 308.576 196.2L309.552 193.656C309.732 193.194 310.178 192.89 310.674 192.89C311.169 192.89 311.615 193.194 311.795 193.656Z" fill="white"/>
<path d="M48.7643 150.133L50.0208 153.408C50.1791 153.817 50.5028 154.141 50.9123 154.299L54.1905 155.56C54.7878 155.79 55.1818 156.364 55.1818 157.004C55.1818 157.644 54.7878 158.218 54.1905 158.448L50.9123 159.708C50.5028 159.867 50.1791 160.19 50.0208 160.6L48.7643 163.874C48.5353 164.474 47.9601 164.87 47.3182 164.87C46.6763 164.87 46.101 164.474 45.8721 163.874L44.6156 160.6C44.4584 160.19 44.1343 159.865 43.7241 159.708L40.4458 158.448C39.8486 158.218 39.4546 157.644 39.4546 157.004C39.4546 156.364 39.8486 155.79 40.4458 155.56L43.7241 154.299C44.1343 154.142 44.4584 153.818 44.6156 153.408L45.8721 150.133C46.101 149.534 46.6763 149.137 47.3182 149.137C47.9601 149.137 48.5353 149.534 48.7643 150.133Z" fill="white"/>
<path d="M290.304 74.9726L291.28 77.5173C291.401 77.8421 291.657 78.0983 291.982 78.2193L294.523 79.195C294.988 79.3726 295.295 79.8187 295.295 80.3164C295.295 80.8142 294.988 81.2603 294.523 81.4378L291.961 82.3925C291.637 82.515 291.381 82.7707 291.259 83.0945L290.283 85.6356C290.105 86.1006 289.659 86.4078 289.161 86.4078C288.664 86.4078 288.218 86.1006 288.04 85.6356L287.085 83.0945C286.963 82.7707 286.707 82.515 286.383 82.3925L283.842 81.4168C283.377 81.2392 283.07 80.7931 283.07 80.2954C283.07 79.7976 283.377 79.3515 283.842 79.1739L286.383 78.1982C286.708 78.0773 286.964 77.8211 287.085 77.4962L288.061 74.9516C288.246 74.4913 288.694 74.1914 289.19 74.1961C289.686 74.2007 290.128 74.509 290.304 74.9726Z" fill="white"/>
<path d="M33.0962 264.296C33.0962 264.296 100.507 262.572 115.929 272.091C131.352 281.61 119.369 298.212 119.369 298.212" stroke="#D2E3FF"/>
<path fill-rule="evenodd" clip-rule="evenodd" d="M108.327 275.608L136.297 272.312L139.242 279.079L119.074 288.907C113.564 291.595 106.914 289.493 103.95 284.127C103.022 282.444 102.992 280.411 103.87 278.702C104.748 276.993 106.419 275.833 108.327 275.608ZM111.574 285.52C113.904 286.32 116.312 285.467 116.947 283.614C117.586 281.754 116.214 279.613 113.883 278.809C111.553 278.005 109.148 278.858 108.509 280.711C107.871 282.565 109.243 284.72 111.574 285.52Z" fill="white"/>
<path d="M124.378 255.044L226.199 235.15C229.618 234.48 233.131 235.725 235.364 238.4L267.605 277.009C268.516 278.099 268.759 279.599 268.239 280.921C267.72 282.244 266.519 283.177 265.11 283.354L153.496 297.45C149.97 297.896 146.488 296.347 144.458 293.431L121.935 261.07C121.188 259.993 121.034 258.611 121.527 257.396C122.019 256.181 123.091 255.297 124.378 255.044Z" fill="white"/>
<path d="M267.672 278.377L156.058 292.473C152.532 292.919 149.05 291.371 147.02 288.454L124.494 256.093" stroke="#85A8FF"/>
<path d="M316.997 132.844C316.43 130.218 315.837 127.602 315.217 124.995H35.9742C35.3495 127.583 34.7434 130.199 34.1561 132.844H316.997Z" fill="white"/>
<path d="M115.329 38.898C112.615 39.249 109.971 39.6269 107.397 40.0317V132.844H115.329V38.898Z" fill="white"/>
<path d="M236.09 36.8342C233.474 36.6775 230.83 36.5312 228.158 36.3955V132.844H236.09V36.8342Z" fill="white"/>
<path d="M241.039 37.1396V119.534H314.192" stroke="#D2E3FF" stroke-width="2"/>
<path d="M101.321 41.0742V119.534H37.136" stroke="#D2E3FF" stroke-width="2"/>
<path d="M222.851 36.1428V119.534H120.092V38.2277" stroke="#D2E3FF" stroke-width="2"/>
<rect x="246.964" y="62.9127" width="4.56285" height="25.4958" rx="2.28142" fill="white"/>
<rect x="88.3804" y="62.9127" width="4.56285" height="25.4958" rx="2.28142" fill="white"/>
<path d="M60.4943 244.763C37.5713 244.763 18.9865 250.512 18.9865 257.609C18.9865 279.427 36.6729 297.113 58.4902 297.113H62.495C84.3123 297.113 101.999 279.427 101.999 257.609C101.999 250.516 83.4174 244.763 60.4943 244.763Z" fill="#000929"/>
<path d="M60.4945 270.456C37.5714 270.456 18.9866 264.703 18.9866 257.609C18.9866 268.086 23.1486 278.134 30.5569 285.543C37.9653 292.951 48.0133 297.113 58.4903 297.113H62.4951C84.3124 297.113 101.999 279.427 101.999 257.609C101.999 264.703 83.4175 270.456 60.4945 270.456Z" fill="#F01543"/>
<path d="M94.572 269.35C86.2044 272.958 74.0357 275.229 60.4945 275.229C42.7556 275.229 27.3788 271.333 19.8044 265.64" stroke="white" stroke-width="2" stroke-linecap="round" stroke-linejoin="round"/>
<path d="M246.964 258.297C246.964 258.297 251.246 244.549 256.749 246.416C261.161 247.908 256.398 254.212 256.398 254.212C256.398 254.212 261.779 250.351 263.471 254.679C265.163 259.006 258.725 259.828 258.725 259.828C258.725 259.828 265.149 266.293 259.968 269.69C255.061 272.905 247.683 261.979 246.964 258.297Z" fill="#F01543"/>
<path d="M257.606 257.395L248.315 259.375" stroke="white" stroke-width="2" stroke-linecap="round" stroke-linejoin="round"/>
<path d="M254.97 250.281L249.238 259.045L258.066 266.753" stroke="white" stroke-width="2" stroke-linecap="round" stroke-linejoin="round"/>
<path d="M236.796 273.116L174.067 270.287V247.16L236.796 244.331C240.727 244.149 244.561 245.584 247.405 248.303C250.25 251.022 251.857 254.787 251.853 258.722C251.858 262.658 250.251 266.424 247.407 269.143C244.562 271.863 240.727 273.298 236.796 273.116Z" fill="#FE724C"/>
<ellipse cx="174.067" cy="258.722" rx="7.31109" ry="11.5616" fill="#FFBA40"/>
<path d="M234.118 273.13C234.118 273.13 237.378 268.216 237.378 259.375" stroke="white" stroke-width="2" stroke-linecap="round" stroke-linejoin="round"/>
<path d="M226.508 244.9C226.508 244.9 231.352 251.376 229.737 262.411" stroke="white" stroke-width="2" stroke-linecap="round" stroke-linejoin="round"/>
<path d="M214.041 272.091C215.844 267.404 216.743 262.417 216.691 257.395" stroke="white" stroke-width="2" stroke-linecap="round" stroke-linejoin="round"/>
<path d="M203.511 245.834C203.511 245.834 207.204 251.6 205.059 261.277" stroke="white" stroke-width="2" stroke-linecap="round" stroke-linejoin="round"/>
<path d="M188.5 270.936C188.5 270.936 190.999 267.644 191.659 261.27" stroke="white" stroke-width="2" stroke-linecap="round" stroke-linejoin="round"/>
<path d="M178.128 255.619C178.128 255.619 176.91 249.624 173.656 250.354C170.403 251.085 168.272 261.688 172.235 266.693C176.198 271.698 177.623 261.291 176.401 256.813C175.18 252.334 171.624 253.584 172.744 262.214" stroke="white" stroke-width="2" stroke-linecap="round" stroke-linejoin="round"/>
<circle cx="79.7495" cy="255.946" r="17.946" fill="#FFBA40"/>
<path d="M87.6854 238.41C87.6854 238.41 83.5823 240.042 81.8414 244.31" stroke="white" stroke-width="2" stroke-linecap="round" stroke-linejoin="round"/>
<path d="M86.5061 244.388C86.5061 244.388 82.0345 245.665 78.837 242.584" stroke="white" stroke-width="2" stroke-linecap="round" stroke-linejoin="round"/>
<circle cx="57.188" cy="243.552" r="14.5274" fill="#FFBA40"/>
<path d="M46.7495 232.472C46.7495 232.472 49.7154 232.177 52.3864 235.28" stroke="white" stroke-width="2" stroke-linecap="round" stroke-linejoin="round"/>
<path d="M48.8519 236.624C48.8519 236.624 52.6075 236.361 54.1905 233.135" stroke="white" stroke-width="2" stroke-linecap="round" stroke-linejoin="round"/>
<path d="M65.8363 255.226C65.8363 255.226 71.6803 252.113 71.7154 243.552C71.8195 238.564 69.26 233.897 64.9974 231.303" stroke="white" stroke-width="2" stroke-linecap="round" stroke-linejoin="round"/>
<path d="M119.362 231.703L121.468 112.321L141.215 104.887L201.406 105.21L219.043 112.321L222.851 231.703H119.362Z" fill="#F01543"/>
<path d="M139.421 231.703V130.239C139.421 126.893 142.134 124.181 145.479 124.181H208.777" stroke="white" stroke-width="2" stroke-linecap="round" stroke-linejoin="round"/>
<path d="M141.215 104.887C141.215 104.887 158.171 101.121 158.715 88.4085H186.98C186.98 88.4085 185.99 101.121 201.406 105.207C201.406 105.207 177.096 129.52 141.215 104.887Z" fill="#FFA397"/>
<path d="M187.335 92.0482C187.054 90.8563 186.936 89.632 186.984 88.4085H163.415L158.701 88.6085C158.627 89.9882 158.342 91.3483 157.855 92.6414C159.736 96.6953 163.804 102.866 171.877 102.883C180.754 102.908 185.32 96.7831 187.335 92.0482Z" fill="#000929"/>
<path d="M189.574 72.5649C189.574 72.5649 191.894 66.3769 196.72 68.002C201.546 69.6271 199.009 77.956 196.309 80.5183C193.61 83.0805 189.29 81.7011 188.914 79.1143C188.539 76.5275 189.574 72.5649 189.574 72.5649Z" fill="#FFA397"/>
<path d="M197.124 71.8909C197.124 71.8909 193.747 72.4806 192.628 77.5629" stroke="#000929" stroke-width="2" stroke-linecap="round" stroke-linejoin="round"/>
<path d="M153.433 72.5649C153.433 72.5649 151.095 66.384 146.276 68.002C141.457 69.6201 144.012 77.9666 146.715 80.5183C149.417 83.0699 153.734 81.6835 154.106 79.0968C154.479 76.51 153.433 72.5649 153.433 72.5649Z" fill="#FFA397"/>
<path d="M145.879 71.9015C145.879 71.9015 149.256 72.4806 150.39 77.5629" stroke="#000929" stroke-width="2" stroke-linecap="round" stroke-linejoin="round"/>
<path d="M147.003 51.5056C147.003 51.5056 149.326 84.0387 160.642 94.6771C170.27 103.712 187.033 100.009 190.69 81.5151C194.347 63.0215 195.197 52.3269 195.197 52.3269L147.003 51.5056Z" fill="#FFA397"/>
<path d="M150.337 72.5403L150.993 59.108C150.993 59.108 157.146 59.0237 161.874 51.7688C161.874 51.7688 172.934 60.3048 192.105 60.5435L192.371 72.3683C192.371 72.3683 194.126 62.5161 196.401 50.786C197.984 42.587 189.844 28.7159 175.082 30.541C162.446 32.1064 160.691 39.8738 160.691 39.8738C160.691 39.8738 155.574 37.1221 149.179 41.6288C143.289 45.7809 145.897 56.2579 145.897 56.2579L150.337 72.5403Z" fill="#000929"/>
<path d="M192.631 44.6788C192.631 44.6788 208.327 42.5378 212.676 35.7567C218.236 27.0873 208.934 19.3972 199.44 18.8391C189.946 18.281 185.692 10.1381 175.713 3.48334C164.643 -3.88741 143.036 0.247228 143.166 17.7229C143.296 35.1986 131.636 29.4354 125.512 36.5008C119.387 43.5662 135.392 49.8664 192.631 44.6788Z" fill="#F01543"/>
<path d="M195.411 56.4791L198.124 42.4185C198.66 39.6573 197.457 36.8487 195.088 35.332C187.717 30.6147 170.259 22.9176 146.802 35.2794C144.149 36.6904 142.725 39.667 143.293 42.6185L145.883 56.2615C145.883 56.2615 165.984 40.46 195.411 56.4791Z" fill="#C7042D"/>
<path d="M148.877 34.2299C148.877 34.2299 169.936 21.4891 193.252 34.2299" stroke="white" stroke-width="2" stroke-linecap="round" stroke-linejoin="round"/>
<path d="M161.874 51.7688C161.874 51.7688 179.897 64.2956 199.43 59.3537" stroke="white" stroke-width="2" stroke-linecap="round" stroke-linejoin="round"/>
<path d="M215.263 220.591C215.263 220.591 209.296 228.239 206.699 229.594C204.101 230.948 199.23 231.061 197.359 235.185C195.488 239.309 188.518 257.441 188.76 258.964C189.002 260.487 191.627 259.515 194.06 255.991C196.492 252.467 200.398 243.047 201.529 242.703C202.659 242.359 193.256 264.018 193.902 265.766C194.547 267.514 197.412 266.142 199.409 262.137C201.406 258.132 206.544 246.178 207.559 245.971C208.573 245.764 207.98 247.375 206.334 251.846C204.179 257.708 201.655 263.155 201.988 264.159C202.322 265.163 205.463 264.159 208.352 258.115C211.346 251.85 211.992 249.017 212.641 249.094C213.29 249.172 209.296 258.687 209.528 260.08C209.759 261.474 212.82 261.246 215.189 255.167C217.558 249.087 218.58 245.658 219.78 244.539C220.98 243.419 229.004 235.746 229.004 235.746L215.263 220.591Z" fill="#FFA397"/>
<path d="M212.09 224.427C212.09 224.427 219.366 229.014 224.989 239.572L229.004 235.736C229.004 235.736 216.147 223.862 212.09 224.427Z" fill="#000929"/>
<path d="M210.602 223.392L238.716 186.439L213.88 149.586L212.286 109.77C212.286 109.77 229.281 114.683 238.962 128.13C245.114 136.673 268.013 176.801 270.238 182.579C272.463 188.356 272.432 195.793 263.896 204.768C255.36 213.743 228.288 238.582 228.288 238.582C228.288 238.582 222.602 228.723 210.602 223.392Z" fill="#F01543"/>
<path d="M228.158 200.314L210.602 223.392" stroke="white" stroke-width="2" stroke-linecap="round" stroke-linejoin="round"/>
<path d="M141.215 104.887L149.656 101.188C149.656 101.188 158.726 107.446 168.55 108.699C170.023 108.898 171.221 109.986 171.561 111.433L172.625 115.919C172.625 115.919 158.104 117.611 141.215 104.887Z" fill="#C7042D"/>
<path d="M172.625 115.919L174.38 110.917C174.817 109.662 175.91 108.749 177.223 108.541C180.95 107.944 188.844 106.246 194.456 101.957L201.406 105.207C201.406 105.207 193.417 116.087 172.625 115.919Z" fill="#C7042D"/>
<path d="M146.701 108.59C146.701 108.59 172.639 124.971 196.566 108.941" stroke="white" stroke-width="2" stroke-linecap="round" stroke-linejoin="round"/>
<path d="M135.483 218.46C135.483 218.46 141.099 221.05 144.942 222.051C148.786 223.051 150.821 230.236 152.057 233.121C153.292 236.006 149.21 235.529 145.269 233.668C141.327 231.808 135.483 218.46 135.483 218.46Z" fill="#F4967D"/>
<path d="M144.798 229.204L187.18 262.65L180.417 264.303C175.774 265.436 170.868 264.36 167.125 261.39L137.624 238.042L144.798 229.204Z" fill="#BDD2FA"/>
<path d="M126.4 210.412C126.4 210.412 140.755 222.886 143.535 226.154C146.315 229.422 154.275 246.29 154.184 248.803C154.093 251.316 149.221 247.557 145.409 242.331L141.612 237.105C141.612 237.105 142.959 240.081 143.395 242.24C143.83 244.398 141.478 245.121 139.727 244.475C138.642 244.045 137.736 243.259 137.157 242.247C137.157 242.247 136.438 243.328 133.749 242.685C130.906 242.004 130.59 239.576 130.59 239.576C130.59 239.576 129.92 242.173 127.891 241.369C123.469 239.614 124.325 234.307 119.538 230.987C114.75 227.667 107.804 221.033 107.804 221.033L126.4 210.412Z" fill="#FFA397"/>
<path d="M128.098 211.907C128.098 211.907 122.265 216.702 117.52 229.485L112.086 224.95C112.086 224.95 123.416 211.876 128.098 211.907Z" fill="#000929"/>
<path d="M129.081 211.647L99.8052 185.116L127.291 150.21C127.291 150.21 146.325 125.992 133.205 114.641C124.781 107.348 111.479 115.045 103.757 126.473C97.8642 135.195 75.3027 169.339 70.5889 175.889C65.6751 182.691 65.0187 195.604 75.1166 202.774C84.2423 209.247 114.013 228.046 114.013 228.046C114.013 228.046 119.769 215.512 129.081 211.647Z" fill="#F01543"/>
<path d="M173.776 254.524L177.521 257.395" stroke="white" stroke-width="2" stroke-linecap="round" stroke-linejoin="round"/>
<path d="M157.36 241.945L170.919 252.338" stroke="white" stroke-width="2" stroke-linecap="round" stroke-linejoin="round"/>
<path d="M120.482 176.306L120.907 144.244" stroke="white" stroke-width="2" stroke-linecap="round" stroke-linejoin="round"/>
<path fill-rule="evenodd" clip-rule="evenodd" d="M154.494 143.219C155.131 141.684 156.631 140.683 158.294 140.685C159.384 140.685 160.429 141.118 161.199 141.889C161.969 142.66 162.401 143.705 162.4 144.795C162.4 146.457 161.399 147.956 159.862 148.592C158.326 149.228 156.558 148.876 155.383 147.7C154.208 146.524 153.857 144.755 154.494 143.219ZM161.445 143.488C160.916 142.215 159.673 141.385 158.294 141.387C156.414 141.391 154.891 142.915 154.889 144.795C154.889 146.173 155.72 147.416 156.994 147.944C158.268 148.471 159.734 148.179 160.709 147.203C161.683 146.228 161.974 144.761 161.445 143.488Z" fill="white"/>
<path fill-rule="evenodd" clip-rule="evenodd" d="M185.034 143.219C185.671 141.684 187.171 140.683 188.833 140.685C191.102 140.687 192.94 142.526 192.94 144.795C192.94 146.457 191.938 147.956 190.402 148.592C188.866 149.228 187.098 148.876 185.922 147.7C184.747 146.524 184.396 144.755 185.034 143.219ZM192.242 144.795C192.242 142.912 190.716 141.387 188.833 141.387C186.952 141.389 185.427 142.913 185.425 144.795C185.425 146.677 186.951 148.203 188.833 148.203C190.716 148.203 192.242 146.677 192.242 144.795Z" fill="white"/>
<path fill-rule="evenodd" clip-rule="evenodd" d="M154.187 176.994C154.187 174.726 156.026 172.888 158.294 172.888C160.562 172.888 162.4 174.726 162.4 176.994C162.4 179.262 160.562 181.101 158.294 181.101C156.026 181.101 154.187 179.262 154.187 176.994ZM161.699 176.994C161.699 175.114 160.174 173.59 158.294 173.59C156.414 173.592 154.891 175.115 154.889 176.994C154.889 178.875 156.414 180.399 158.294 180.399C160.174 180.399 161.699 178.875 161.699 176.994Z" fill="white"/>
<path fill-rule="evenodd" clip-rule="evenodd" d="M184.727 176.994C184.727 174.726 186.565 172.888 188.833 172.888C191.101 172.888 192.94 174.726 192.94 176.994C192.94 179.262 191.101 181.101 188.833 181.101C186.565 181.101 184.727 179.262 184.727 176.994ZM192.234 176.997C192.236 175.117 190.713 173.592 188.833 173.59C186.953 173.59 185.427 175.114 185.425 176.994C185.425 178.874 186.949 180.398 188.829 180.399C190.709 180.4 192.233 178.877 192.234 176.997Z" fill="white"/>
<path fill-rule="evenodd" clip-rule="evenodd" d="M154.494 207.623C155.131 206.087 156.631 205.086 158.294 205.088C160.562 205.088 162.4 206.926 162.4 209.194C162.402 210.857 161.401 212.357 159.865 212.994C158.329 213.631 156.56 213.28 155.384 212.104C154.208 210.928 153.857 209.159 154.494 207.623ZM161.445 207.892C160.917 206.618 159.673 205.788 158.294 205.789C156.414 205.791 154.891 207.315 154.889 209.194C154.888 210.573 155.718 211.817 156.992 212.346C158.265 212.874 159.732 212.583 160.707 211.607C161.682 210.632 161.974 209.166 161.445 207.892Z" fill="white"/>
<path fill-rule="evenodd" clip-rule="evenodd" d="M185.033 207.623C185.67 206.087 187.17 205.086 188.833 205.088C191.101 205.088 192.94 206.926 192.94 209.194C192.941 210.857 191.941 212.357 190.404 212.994C188.868 213.631 187.1 213.28 185.924 212.104C184.748 210.928 184.396 209.159 185.033 207.623ZM191.982 207.894C191.455 206.62 190.212 205.789 188.833 205.789C186.953 205.789 185.427 207.313 185.425 209.194C185.424 210.573 186.253 211.817 187.527 212.345C188.8 212.874 190.267 212.583 191.242 211.609C192.218 210.634 192.51 209.168 191.982 207.894Z" fill="white"/>
<ellipse cx="141.485" cy="267.848" rx="11.5616" ry="8.15346" fill="#FE724C"/>
<ellipse cx="141.485" cy="267.002" rx="11.5616" ry="7.31109" fill="#FFBA40"/>
<path d="M144.591 271.063C144.591 271.063 150.586 269.845 149.856 266.591C149.126 263.338 138.522 261.207 133.517 265.187C128.512 269.167 138.93 270.557 143.405 269.336C147.88 268.114 146.651 264.555 138.003 265.679" stroke="white" stroke-width="2" stroke-linecap="round" stroke-linejoin="round"/>
<ellipse cx="148.738" cy="266.155" rx="8.15346" ry="11.5616" transform="rotate(-67.12 148.738 266.155)" fill="#FE724C"/>
<ellipse cx="149.067" cy="265.381" rx="7.31109" ry="11.5616" transform="rotate(-67.12 149.067 265.381)" fill="#FFBA40"/>
<path d="M150.351 270.336C150.351 270.336 156.349 271.544 156.946 268.265C157.543 264.987 148.599 258.898 142.44 260.6C136.28 262.302 145.325 267.665 149.926 268.283C154.528 268.901 154.756 265.124 146.371 262.811" stroke="white" stroke-width="2" stroke-linecap="round" stroke-linejoin="round"/>
<path d="M40.2248 90.2687C27.5892 90.2687 1.88283 70.6871 3.46228 54.4083C6.0631 27.6384 47.406 -3.59958 64.7659 1.66524C82.1258 6.93006 101.497 39.772 96.755 50.4526C92.0131 61.1332 75.0112 74.8498 75.0112 74.8498L86.4745 82.8699L64.7659 79.9707C64.7659 79.9707 46.8795 90.2687 40.2248 90.2687Z" fill="#F01543"/>
<path d="M66.9246 49.6594C66.9246 49.6594 71.2207 44.9245 68.3812 40.0142C65.5417 35.1039 64.7836 36.8729 65.1591 32.5838C65.5347 28.2947 59.2555 31.3202 57.2198 27.2874C55.184 23.2545 49.6665 22.4999 45.9495 26.0273C42.2326 29.5548 37.5644 27.1645 34.7916 30.1866C32.0188 33.2086 28.1228 42.9871 43.7383 52.0882C59.3538 61.1893 66.9246 49.6594 66.9246 49.6594Z" fill="#2A44A1"/>
<path d="M59.0449 62.5933C59.0449 62.5933 69.3183 60.2978 68.311 46.6303C67.3037 32.9629 47.7712 27.4418 41.0041 34.2861C29.6602 45.7529 38.6174 67.5317 59.0449 62.5933Z" fill="white"/>
<path d="M51.8145 66.8508C49.7893 65.6539 48.982 64.6922 42.5554 65.1976C36.1288 65.703 30.7446 63.4427 30.3656 58.9009C30.3656 58.9009 25.357 53.3307 26.8557 48.1291C28.3544 42.9274 30.3656 43.1169 29.5969 38.863C28.8282 34.609 36.1148 35.5567 37.6275 32.2468C39.1403 28.937 44.3525 29.6952 46.139 33.7596C47.9255 37.824 55.3945 33.4402 56.8266 39.923C58.2586 46.4057 64.1973 43.7838 62.4986 50.4807C60.7998 57.1775 64.9555 58.227 63.2532 60.4944C61.5509 62.7618 57.3952 63.5199 56.8266 66.1663C56.258 68.8128 52.9025 67.4931 51.8145 66.8508Z" fill="#FE724C"/>
<path d="M30.3657 58.9009C30.3657 58.9009 29.5339 48.2379 42.7591 39.1648" stroke="white" stroke-width="2" stroke-linecap="round" stroke-linejoin="round"/>
<path d="M31.2643 53.3939C31.2643 53.3939 36.4659 51.8706 43.1452 53.3939C49.8245 54.9172 52.2078 52.7165 52.2078 52.7165" stroke="white" stroke-width="2" stroke-linecap="round" stroke-linejoin="round"/>
<path d="M32.5454 50.3087C32.5454 50.3087 31.0116 46.0617 31.2643 41.7165" stroke="white" stroke-width="2" stroke-linecap="round" stroke-linejoin="round"/>
<path d="M35.634 45.5914C35.634 45.5914 38.6701 45.7178 45.1283 43.9523" stroke="white" stroke-width="2" stroke-linecap="round" stroke-linejoin="round"/>
<path d="M38.7859 42.2956C38.7859 42.2956 38.5858 38.1575 38.7859 35.5742" stroke="white" stroke-width="2" stroke-linecap="round" stroke-linejoin="round"/>
<path d="M65.7064 263.646C65.7064 263.646 70.0025 258.912 67.163 254.001C64.3235 249.091 63.5654 250.863 63.941 246.574C64.3165 242.285 58.0198 245.311 56.0051 241.278C53.9905 237.245 48.4483 236.49 44.7314 240.018C41.0144 243.545 36.3463 241.152 33.5735 244.177C30.8007 247.203 26.9047 256.978 42.5202 266.075C58.1356 275.173 65.7064 263.646 65.7064 263.646Z" fill="#2A44A1"/>
<path d="M57.8266 276.584C57.8266 276.584 68.1 274.285 67.0927 260.617C66.0854 246.95 46.5529 241.429 39.7823 248.273C28.4419 259.74 37.3991 281.519 57.8266 276.584Z" fill="white"/>
<path d="M50.5963 280.838C48.5746 279.641 47.7674 278.679 41.3408 279.185C34.9142 279.69 29.5265 277.43 29.1474 272.888C29.1474 272.888 24.1388 267.321 25.6375 262.12C27.1363 256.918 29.1474 257.104 28.3788 252.853C27.6101 248.603 34.9001 249.544 36.4094 246.237C37.9186 242.931 43.1343 243.686 44.9244 247.75C46.7144 251.815 54.1764 247.431 55.5944 253.92C57.0124 260.41 62.9652 257.781 61.2664 264.478C59.5676 271.175 63.7233 272.228 62.021 274.495C60.3187 276.763 56.163 277.517 55.5944 280.164C55.0258 282.81 51.6844 281.484 50.5963 280.838Z" fill="#FE724C"/>
<path d="M29.1475 272.888C29.1475 272.888 28.3156 262.225 41.5479 253.152" stroke="white" stroke-width="2" stroke-linecap="round" stroke-linejoin="round"/>
<path d="M30.0494 267.381C30.0494 267.381 35.2476 265.858 41.9269 267.381C48.6062 268.904 50.9894 266.703 50.9894 266.703" stroke="white" stroke-width="2" stroke-linecap="round" stroke-linejoin="round"/>
<path d="M31.3271 264.296C31.3271 264.296 29.7933 260.052 30.0495 255.704" stroke="white" stroke-width="2" stroke-linecap="round" stroke-linejoin="round"/>
<path d="M34.4193 259.578C34.4193 259.578 37.4519 259.705 43.896 257.943" stroke="white" stroke-width="2" stroke-linecap="round" stroke-linejoin="round"/>
<path d="M37.5676 256.283C37.5676 256.283 37.3675 252.145 37.5676 249.561" stroke="white" stroke-width="2" stroke-linecap="round" stroke-linejoin="round"/>
</svg>
