<svg width="328" height="274" viewBox="0 0 328 274" fill="none" xmlns="http://www.w3.org/2000/svg">
<path opacity="0.4" d="M15.5315 59.3702C26.6652 17.2449 78.4452 10.412 134.41 14.5696C258.36 23.771 327.53 45.4931 327.98 97.665C328.416 146.381 321.784 235.076 298.198 248.701C274.612 262.326 74.1035 262.707 38.3271 231.828C18.0943 214.352 0.744522 115.325 15.5315 59.3702Z" fill="#FCCBD5"/>
<path d="M159.005 16.6349C159.005 16.6349 174.76 23.4848 190.654 79.5178C206.549 135.551 257.76 102.351 303.232 53.5767" stroke="white"/>
<path d="M35.6552 30.2495C35.6552 30.2495 111.815 11.4275 132.675 96.1928C153.535 180.958 231.549 201.157 321.501 190.19" stroke="white"/>
<path d="M0.805908 130.303H70.4911C70.4911 130.303 71.2204 121.636 62.4518 119.844C62.4518 119.844 68.736 110.005 58.3112 102.218C48.6872 95.0307 35.8973 101.162 35.6553 109.242C35.6553 109.242 31.0274 104.573 23.2334 107.17C17.7808 108.996 13.8957 116.122 16.3324 122.13C16.3324 122.124 4.31607 118.375 0.805908 130.303Z" fill="white"/>
<path d="M256.312 273.009H173.496V110.963L214.902 81.0037L256.312 110.963V273.009Z" fill="white"/>
<rect x="182.302" y="133.193" width="16.7056" height="16.7056" rx="6.92" fill="#FCCBD5"/>
<rect x="206.549" y="133.193" width="16.7056" height="16.7056" rx="6.92" fill="#FCCBD5"/>
<rect x="230.796" y="133.193" width="16.7056" height="16.7056" rx="6.92" fill="#FCCBD5"/>
<rect x="182.302" y="157.464" width="16.7056" height="16.7056" rx="6.92" fill="#FCCBD5"/>
<rect x="206.549" y="157.464" width="16.7056" height="16.7056" rx="6.92" fill="#FCCBD5"/>
<rect x="230.796" y="157.464" width="16.7056" height="16.7056" rx="6.92" fill="#FCCBD5"/>
<rect x="182.302" y="181.732" width="16.7056" height="16.7056" rx="6.92" fill="#FCCBD5"/>
<rect x="206.549" y="181.732" width="16.7056" height="16.7056" rx="6.92" fill="#FCCBD5"/>
<rect x="230.796" y="181.732" width="16.7056" height="16.7056" rx="6.92" fill="#FCCBD5"/>
<rect x="182.302" y="206.003" width="16.7056" height="16.7056" rx="6.92" fill="#FCCBD5"/>
<rect x="206.549" y="206.003" width="16.7056" height="16.7056" rx="6.92" fill="#FCCBD5"/>
<rect x="230.796" y="206.003" width="16.7056" height="16.7056" rx="6.92" fill="#FCCBD5"/>
<rect x="182.302" y="230.271" width="16.7056" height="16.7056" rx="6.92" fill="#FCCBD5"/>
<rect x="206.549" y="230.271" width="16.7056" height="16.7056" rx="6.92" fill="#FCCBD5"/>
<rect x="230.796" y="230.271" width="16.7056" height="16.7056" rx="6.92" fill="#FCCBD5"/>
<ellipse cx="214.902" cy="110.414" rx="10.0295" ry="10.0295" fill="#FCCBD5"/>
<rect x="54.7192" y="60.9651" width="47.4417" height="26.7897" fill="#FCCBD5"/>
<path d="M109.866 273.009H45.9131V51.733L109.866 87.7445V273.009Z" fill="white"/>
<rect x="81.6589" y="97.3685" width="16.7056" height="16.7056" rx="4.13" fill="#FCCBD5"/>
<rect x="81.6589" y="121.636" width="16.7056" height="16.7056" rx="4.13" fill="#FCCBD5"/>
<rect x="81.6589" y="145.908" width="16.7056" height="16.7056" rx="4.13" fill="#FCCBD5"/>
<rect x="81.6589" y="170.179" width="16.7056" height="16.7056" rx="4.13" fill="#FCCBD5"/>
<rect x="57.4115" y="97.3685" width="16.7056" height="113.787" rx="4.13" fill="#FCCBD5"/>
<rect x="81.6589" y="194.447" width="16.7056" height="16.7056" rx="4.13" fill="#FCCBD5"/>
<rect x="263.778" y="161.693" width="49.7625" height="111.32" fill="white"/>
<rect x="269.074" y="181.558" width="10.0397" height="10.0397" rx="3.6" fill="#FCCBD5"/>
<rect x="283.643" y="181.558" width="10.0397" height="10.0397" rx="3.6" fill="#FCCBD5"/>
<rect x="298.212" y="181.558" width="10.0397" height="10.0397" rx="3.6" fill="#FCCBD5"/>
<rect x="269.074" y="196.14" width="10.0397" height="10.0397" rx="3.6" fill="#FCCBD5"/>
<rect x="283.643" y="196.14" width="10.0397" height="10.0397" rx="3.6" fill="#FCCBD5"/>
<rect x="298.212" y="196.14" width="10.0397" height="10.0397" rx="3.6" fill="#FCCBD5"/>
<rect x="269.074" y="210.723" width="10.0397" height="10.0397" rx="3.6" fill="#FCCBD5"/>
<rect x="283.643" y="210.723" width="10.0397" height="10.0397" rx="3.6" fill="#FCCBD5"/>
<rect x="298.212" y="210.723" width="10.0397" height="10.0397" rx="3.6" fill="#FCCBD5"/>
<rect x="269.074" y="225.305" width="10.0397" height="10.0397" rx="3.6" fill="#FCCBD5"/>
<rect x="283.643" y="225.305" width="10.0397" height="10.0397" rx="3.6" fill="#FCCBD5"/>
<rect x="298.212" y="225.305" width="10.0397" height="10.0397" rx="3.6" fill="#FCCBD5"/>
<rect x="269.074" y="239.888" width="10.0397" height="10.0397" rx="3.6" fill="#FCCBD5"/>
<rect x="283.643" y="239.888" width="10.0397" height="10.0397" rx="3.6" fill="#FCCBD5"/>
<rect x="298.212" y="239.888" width="10.0397" height="10.0397" rx="3.6" fill="#FCCBD5"/>
<path d="M263.778 176.453H313.544" stroke="#EAE6FF" stroke-width="2"/>
<path d="M182.302 56.6916H244.571C244.571 56.6916 245.222 48.9488 237.387 47.3436C237.387 47.3436 243.003 38.5512 233.686 31.5956C225.088 25.1751 213.661 30.6516 213.443 37.8696C213.443 37.8696 209.309 33.6983 202.344 36.0191C197.457 37.6515 194.001 44.0175 196.175 49.3884C196.175 49.3918 185.454 46.035 182.302 56.6916Z" fill="white"/>
<path d="M12.362 218.568L13.4048 221.294C13.5353 221.634 13.8041 221.903 14.1444 222.034L16.8707 223.077C17.3583 223.272 17.678 223.744 17.678 224.269C17.678 224.795 17.3583 225.267 16.8707 225.462L14.1444 226.508C13.8034 226.638 13.5342 226.907 13.4048 227.248L12.362 229.974C12.1699 230.47 11.6927 230.797 11.1607 230.797C10.6288 230.797 10.1515 230.47 9.95944 229.974L8.91661 227.248C8.78613 226.908 8.51732 226.639 8.1771 226.508L5.45076 225.462C4.96314 225.267 4.64343 224.795 4.64343 224.269C4.64343 223.744 4.96314 223.272 5.45076 223.077L8.1771 222.034C8.51919 221.904 8.79032 221.635 8.92343 221.294L9.94581 218.568C10.1329 218.062 10.6149 217.727 11.1539 217.727C11.6929 217.727 12.1749 218.062 12.362 218.568Z" fill="#FCCBD5"/>
<path d="M224.018 0.801637L225.061 3.52797C225.19 3.86892 225.459 4.13813 225.8 4.26749L228.527 5.31373C229.014 5.50892 229.334 5.98126 229.334 6.5065C229.334 7.03173 229.014 7.50408 228.527 7.69927L225.8 8.7455C225.459 8.87487 225.19 9.14408 225.061 9.48502L224.018 12.2114C223.82 12.6961 223.349 13.013 222.825 13.013C222.302 13.013 221.83 12.6961 221.632 12.2114L220.59 9.48502C220.46 9.14408 220.191 8.87487 219.85 8.7455L217.124 7.69927C216.636 7.50408 216.316 7.03173 216.316 6.5065C216.316 5.98126 216.636 5.50892 217.124 5.31373L219.85 4.26749C220.191 4.13813 220.46 3.86892 220.59 3.52797L221.632 0.801637C221.83 0.316867 222.302 0 222.825 0C223.349 0 223.82 0.316867 224.018 0.801637Z" fill="#FCCBD5"/>
<path d="M304.431 114.739L305.474 117.465C305.605 117.805 305.874 118.074 306.214 118.205L308.94 119.247C309.425 119.445 309.742 119.917 309.742 120.44C309.742 120.964 309.425 121.435 308.94 121.633L306.214 122.676C305.874 122.806 305.605 123.075 305.474 123.415L304.431 126.142C304.236 126.629 303.764 126.949 303.239 126.949C302.713 126.949 302.241 126.629 302.046 126.142L301 123.415C300.87 123.074 300.601 122.805 300.26 122.676L297.534 121.633C297.049 121.435 296.732 120.964 296.732 120.44C296.732 119.917 297.049 119.445 297.534 119.247L300.26 118.205C300.601 118.075 300.87 117.806 301 117.465L302.046 114.739C302.241 114.251 302.713 113.931 303.239 113.931C303.764 113.931 304.236 114.251 304.431 114.739Z" fill="white"/>
<path d="M151.562 234.35C151.562 234.35 68.4089 218.428 62.3564 223.53C56.304 228.631 53.9082 239.83 65.5122 243.48C77.215 247.16 89.8004 249.191 99.3563 250.769C108.912 252.347 149.494 253.601 149.494 253.601L151.562 234.35Z" fill="#B6072C"/>
<rect x="267.438" y="165.392" width="10.1215" height="32.1333" rx="5.06077" transform="rotate(60 267.438 165.392)" fill="#000929"/>
<path d="M242.615 163.394C242.615 163.394 248.627 164.457 252.839 163.124C257.051 161.792 260.554 162.157 263.093 165.169C265.632 168.182 269.204 171.924 268.662 174.299C268.12 176.674 265.254 175.608 265.254 175.608C265.254 175.608 266.75 177.881 264.436 179.189C262.582 180.232 261.26 178.569 261.26 178.569C261.26 178.569 262.061 180.815 259.593 182.011C258.23 182.669 256.359 181.33 256.359 181.33C256.359 181.33 254.693 184.294 252.846 183.688C250.998 183.081 250.709 179.285 248.398 177.796C245.559 175.972 240.591 174.793 240.591 174.793C240.591 174.793 240.931 170.291 241.177 169C241.879 165.121 242.615 163.394 242.615 163.394Z" fill="#FFA397"/>
<path d="M260.793 169.415L265.24 175.621" stroke="#000929" stroke-width="2" stroke-linecap="round" stroke-linejoin="round"/>
<path d="M261.246 178.583L257.835 173.386" stroke="white" stroke-width="2" stroke-linecap="round" stroke-linejoin="round"/>
<path d="M184.677 152.829C184.677 152.829 178.011 143.464 171.195 133.424C164.38 123.385 157.41 112.667 149.402 110.094C133.384 104.944 123.863 127.276 141.042 144.578C158.221 161.881 169.481 174.064 176.399 176.194C183.317 178.324 242.401 182.355 242.401 182.355C242.401 182.355 241.201 169.15 244.994 160.933L184.677 152.829Z" fill="#B6072C"/>
<path d="M57.4253 115.206L89.0849 103.748C94.6364 102.17 99.3734 102.671 104.145 102.951C111.642 103.387 132.597 105.677 132.597 105.677L92.1997 118.781L57.4253 115.206Z" fill="#000929"/>
<path d="M92.1997 118.781L62.5507 114.66C59.4932 114.235 56.4011 115.153 54.0713 117.178C51.7416 119.204 50.4021 122.138 50.3981 125.225V215.194C50.3966 220.13 53.7783 224.423 58.5771 225.578L94.9941 234.336L92.1997 118.781Z" fill="#FE724C"/>
<path d="M57.4253 225.237C57.8092 225.373 58.2006 225.487 58.5976 225.578L84.3172 231.763V188.52C84.3169 185.792 82.4259 183.428 79.7642 182.829L62.3668 178.917C61.1659 178.647 59.9072 178.937 58.946 179.706C57.9848 180.475 57.4253 181.639 57.4253 182.87L57.4253 225.237Z" fill="#FFBA40"/>
<path d="M132.594 105.684L135.003 216.99L95.0147 234.35L92.1997 118.78L132.594 105.684Z" fill="#FFC550"/>
<path d="M226.264 257.296C206.883 257.977 178.267 257.006 178.212 257.129C155.038 232.816 140.231 228.083 158.419 256.321C145.363 255.769 117.797 253.114 99.3427 250.769C95.9927 243.902 94.1251 231.14 94.1251 231.14L163.763 201.941C163.844 201.91 217.199 241.22 226.264 257.296Z" fill="#000929"/>
<path d="M101.619 100.654C101.619 100.654 90.2163 107.129 79.3246 114.773C68.4329 122.417 70.8048 142.377 73.6981 155.075C76.5915 167.773 93.8594 234.244 93.8594 234.244C93.8594 234.244 146.505 237.513 171.195 208.467C171.195 208.467 160.825 182.325 160.927 154.369C160.982 139.45 160.317 128.37 155.948 116.327C153.014 108.243 143.373 106.103 143.373 106.103L101.619 100.654Z" fill="#F01543"/>
<path d="M101.619 100.654C101.619 100.654 111.458 96.3461 112.606 84.841L137.699 96.0122C137.699 96.0122 136.571 104.365 146.56 107.132C146.56 107.146 118.754 117.942 101.619 100.654Z" fill="#FFA397"/>
<path d="M116.614 91.3058C116.614 91.3058 124.071 106.481 140.071 103.312C140.071 103.312 137.685 100.419 137.068 97.5185L116.614 91.3058Z" fill="#000929"/>
<path d="M151.348 59.5985C151.348 59.5985 156.279 80.2335 146.72 94.3934C137.16 108.553 118.308 99.0146 112.617 84.8512C106.925 70.6879 111.045 61.3672 111.045 61.3672C111.045 61.3672 139.57 54.3844 151.348 59.5985Z" fill="#FFA397"/>
<path d="M155.212 68.7318C157.172 68.3705 158.62 67.9786 158.961 64.5468C159.438 60.0041 155.308 59.82 155.308 59.82C155.308 59.82 155.164 63.2007 155.154 64.4514C155.147 66.1315 155.212 68.7318 155.212 68.7318Z" fill="#B6072C"/>
<path d="M122.663 63.4699C122.663 63.4699 120.042 67.3413 124.115 76.7608C127.127 83.7164 128.658 90.5152 121.273 95.3885C115.159 99.4235 91.184 88.525 97.1036 59.377C101.629 37.0926 127.625 30.0144 144.041 39.2464C161.963 49.3271 152.619 62.5089 156.487 73.7755C159.349 82.1079 156.766 88.6851 148.502 91.1934C148.502 91.1934 153.914 77.8241 151.484 62.877C151.484 62.8701 140.698 56.3849 122.663 63.4699Z" fill="#000929"/>
<circle cx="133.752" cy="74.0038" r="1.49949" fill="#000929"/>
<circle cx="148.945" cy="74.0038" r="1.49949" fill="#000929"/>
<path d="M144.982 66.1724C144.982 66.1724 149.579 62.2703 153.42 67.2561C153.42 67.2561 149.201 66.0225 144.982 66.1724Z" fill="#000929"/>
<path d="M137.709 66.1724C137.709 66.1724 133.112 62.2703 129.268 67.2629C129.268 67.2561 133.49 66.0225 137.709 66.1724Z" fill="#000929"/>
<path d="M142.603 75.5033C142.603 75.5033 143.782 78.6454 145.145 81.5524C146.508 84.4593 144.872 85.4544 142.603 85.9077" stroke="#000929" stroke-width="2" stroke-linecap="round" stroke-linejoin="round"/>
<path d="M137.709 91.9908C137.709 91.9908 133.057 90.8117 131.111 87.0902" stroke="#000929" stroke-width="2" stroke-linecap="round" stroke-linejoin="round"/>
<path d="M110.197 50.0359C108.734 51.4199 107.35 52.8842 106.049 54.4219C104.469 56.2459 104.5 58.9626 106.121 60.7504C107.556 62.3434 109.877 62.7839 111.795 61.8273L113.23 61.115C114.435 60.5163 115.898 60.9307 116.611 62.0727L117.49 63.4869C117.91 64.2595 118.624 64.8298 119.47 65.0685C120.316 65.3072 121.223 65.194 121.985 64.7547C127.53 61.5615 140.667 55.676 156.19 60.3244C161.374 61.875 157.799 67.706 157.799 67.706C157.799 67.706 162.001 65.6612 160.668 61.1696C159.336 56.6779 154.817 43.2405 151.228 40.722C143.877 35.542 125.556 36.2781 110.197 50.0359Z" fill="#F01543"/>
<path d="M144.314 38.1457C143.534 38.0162 142.721 37.9207 141.873 37.8594L136.465 59.3702C137.314 59.2066 138.189 59.0703 139.082 58.9544L144.314 38.1457Z" fill="white"/>
<path d="M128.276 61.7421C130.057 61.0465 131.878 60.4581 133.729 59.9802L139.311 37.7844C137.591 37.8063 135.875 37.9498 134.175 38.2138L128.276 61.7421Z" fill="white"/>
<path d="M152.056 68.1865C152.056 68.1865 152.632 82.2305 147.459 93.2586" stroke="white" stroke-width="2" stroke-linecap="round" stroke-linejoin="round"/>
<ellipse cx="109.41" cy="57.6492" rx="2.01408" ry="2.01408" fill="white"/>
<path d="M130.689 113.045C130.689 113.045 140.391 186.009 147.446 225.292" stroke="white" stroke-width="2" stroke-linecap="round" stroke-linejoin="round"/>
<path d="M82.4701 112.636C82.4701 112.636 102.096 117.993 110.32 147.946C118.543 177.898 85.8439 203.205 85.8439 203.205L89.136 215.992C89.136 215.992 123.195 193.809 124.111 158.019C125.028 122.229 97.7989 102.951 97.7989 102.951C92.0454 104.473 86.8722 107.667 82.9336 112.128L82.4701 112.636Z" fill="#000929"/>
<path d="M146.559 107.146C146.559 107.146 159.036 109.974 160.423 133.121C161.916 158.019 160.927 171.791 163.776 182.011C163.776 182.011 153.423 178.218 153.423 147.22C153.42 111.9 146.559 107.146 146.559 107.146Z" fill="#000929"/>
<path d="M278.794 253.601C269.97 255.609 233.151 258.103 208.25 257.35C210.935 222.521 222.024 214.069 234.177 208.375C264.143 194.3 269.074 219.536 278.794 253.601Z" fill="#FE724C"/>
<path d="M272.554 254.59C272.554 254.59 266.215 255.319 263.107 255.547L252.495 256.331C252.495 256.331 243.508 223.751 239.909 217.627C238.437 215.238 236.733 212.999 234.821 210.944C234.179 210.247 233.486 209.598 232.749 209.002L249.349 201.528C250.498 202.506 251.545 203.598 252.474 204.786C254.424 207.209 256.155 210.525 257.835 213.899C261.246 220.759 272.554 254.59 272.554 254.59Z" fill="white"/>
<path d="M198.063 203.672C195.43 198.955 196.889 193.004 201.406 190.04C204.613 187.91 211.947 185.392 213.675 181.408C217.246 173.195 237.64 166.88 243.171 170.414C246.858 172.769 251.595 170.789 254.158 170.574C259.195 170.158 262.027 175.004 261.059 179.046C259.433 185.862 256.628 183.194 255.879 193.619C255.654 196.836 257.303 201.266 253.616 203.982C246.231 209.435 236.028 212.996 230.19 209.694C228.748 208.879 226.557 205.904 225.419 205.117C222.651 203.208 215.877 206.8 210.025 208.549C205.415 209.938 200.459 207.943 198.097 203.747L198.063 203.672Z" fill="#FE724C"/>
<path d="M225.93 200.564C223.728 199.807 216.943 202.891 209.913 205.383C205.404 206.984 200.302 206.463 197.985 203.559L198.043 203.672L198.087 203.75C200.448 207.946 205.405 209.942 210.015 208.552C215.877 206.804 222.624 203.212 225.409 205.12C226.55 205.907 228.741 208.869 230.18 209.697C232.095 210.781 234.48 211.122 237.084 210.9C230.721 210.048 230.923 202.275 225.93 200.564Z" fill="#1D7C89"/>
<rect x="205.686" y="193.406" width="10.1215" height="32.1333" rx="5.06077" transform="rotate(68.54 205.686 193.406)" fill="#000929"/>
<path d="M261.362 181.009C264.327 178.828 269.78 175.025 271.787 174.936C271.787 174.936 271.317 176.443 273.198 176.981C275.079 177.519 276.118 175.277 274.8 174.071C273.481 172.864 271.242 173.27 268.594 174.108C266.849 174.66 262.272 176.153 259.355 177.124C258.723 177.334 258.219 177.816 257.982 178.437C257.744 179.058 257.798 179.754 258.128 180.331C258.443 180.877 258.976 181.263 259.594 181.392C260.211 181.522 260.854 181.382 261.362 181.009Z" fill="#B6072C"/>
<path d="M254.339 184.376L254.748 189.682C255.047 193.612 253.504 197.265 250.903 198.638L242.656 202.997C240.182 204.306 237.299 202.632 236.287 199.197L234.46 192.985C233.53 189.825 234.74 186.455 237.105 185.538L250.396 180.389C252.212 179.687 254.131 181.664 254.339 184.376Z" fill="#FFBA40"/>
<path d="M255.61 183.228C255.436 179.019 252.202 177.652 250.184 178.457L235.697 184.288C233.053 185.354 231.696 189.273 232.736 192.947L234.78 200.175C235.912 204.169 239.149 206.391 242.424 204.912" stroke="white" stroke-width="2" stroke-linecap="round" stroke-linejoin="round"/>
<path d="M248.743 181.033L247.315 181.585L244.657 201.941L246.112 201.17L248.743 181.033Z" fill="white"/>
<path d="M241.906 183.681L239.371 203.106C240.422 203.591 241.64 203.55 242.656 202.997L242.789 202.929L245.485 182.294L241.906 183.681Z" fill="white"/>
<rect x="230.398" y="229.545" width="45.3322" height="17.3838" rx="5.47" transform="rotate(-21.46 230.398 229.545)" fill="#000929"/>
<path d="M251.101 173.386L256.649 159.093C257.515 156.857 259.427 155.192 261.761 154.642L269.091 152.938" stroke="#000929" stroke-width="6" stroke-linecap="round" stroke-linejoin="round"/>
<ellipse cx="272.527" cy="152.929" rx="10.326" ry="9.34452" transform="rotate(-60 272.527 152.929)" fill="#000929"/>
<path d="M186.081 176.79L198.442 176.289C200.641 176.201 202.743 177.203 204.058 178.968L212.404 190.19" stroke="#000929" stroke-width="6" stroke-linecap="round" stroke-linejoin="round"/>
<ellipse cx="185.231" cy="176.789" rx="10.326" ry="9.34452" transform="rotate(-60 185.231 176.789)" fill="#000929"/>
<path d="M229.924 213.408C229.924 213.408 213.399 224.256 212.404 253.601" stroke="white" stroke-width="2" stroke-linecap="round" stroke-linejoin="round"/>
<path d="M170.408 186.009C170.408 186.009 178.819 189.703 185.233 190.306C191.646 190.909 196.854 189.215 198.789 194.3C200.725 199.385 203.939 204.289 202.661 206.64C201.383 208.992 198.183 207.489 198.183 207.489C198.183 207.489 198.442 209.343 196.993 210.137C195.289 211.067 193.432 209.67 193.432 209.67C193.432 209.67 193.562 211.459 192.11 212.123C190.658 212.788 189.155 211.749 189.155 211.749C189.155 211.749 188.814 213.085 187.594 213.357C186.409 213.678 185.144 213.305 184.323 212.393C184.323 212.393 187.114 210.958 186.633 207.127C186.081 202.728 180.479 203.297 180.479 203.297C180.479 203.297 177.79 207.922 173.322 207.015C168.854 206.109 165.825 203 160.917 202.043L170.408 186.009Z" fill="#FFA397"/>
<path d="M196.748 202.731L198.183 207.492" stroke="#000929" stroke-width="2" stroke-linecap="round" stroke-linejoin="round"/>
<path d="M193.432 209.673L192.212 205.11" stroke="#000929" stroke-width="2" stroke-linecap="round" stroke-linejoin="round"/>
<path d="M178.659 188.956C178.659 188.956 174.177 198.993 174.637 207.131C174.637 207.131 172.194 207.131 170.606 206.054C170.606 206.054 174.32 193.598 178.659 188.956Z" fill="#000929"/>
<path d="M193.974 213.456C193.974 213.456 195.245 214.547 194.792 216.087C194.338 217.627 190.436 217.903 190.072 214.771C189.765 212.13 204.31 202.356 208.873 199.357C209.716 198.798 210.774 198.672 211.726 199.017C212.784 199.405 213.561 200.321 213.771 201.429C213.98 202.537 213.592 203.674 212.748 204.422C211.581 205.424 210.222 206.178 208.754 206.637C202.783 208.641 197.61 209.551 193.974 213.456Z" fill="#B6072C"/>
<path d="M120.816 166.253C120.816 166.253 114.361 153.477 106.601 137.459C102.103 128.193 95.7847 119.537 89.5925 117.86C72.1917 113.154 64.7147 132.957 79.7096 154.352C94.7044 175.747 101.115 186.673 108.029 190.18C114.944 193.687 171.205 208.45 171.205 208.45C171.205 208.45 173.434 195.016 179.725 187.573L120.816 166.253Z" fill="#B6072C"/>
<path d="M178.226 257.129C178.188 257.248 165.276 256.76 158.433 256.321C151.593 245.978 140.929 230.199 161.472 237.85C172.02 241.237 181.334 246.111 178.226 257.129Z" fill="#B6072C"/>
<path d="M84.0582 160.633L100.208 183.241C100.208 183.241 103.569 188.851 109.866 190.977C116.164 193.104 151.562 203.208 151.562 203.208" stroke="white" stroke-width="2" stroke-linecap="round" stroke-linejoin="round"/>
<path d="M99.9152 101.676C99.9152 101.676 112.378 114.568 130.304 113.086L129.349 110.537C128.605 108.543 126.88 107.078 124.793 106.665C120.24 105.772 111.938 103.309 106.049 96.6904L99.9152 101.676Z" fill="#B6072C"/>
<path d="M130.3 113.072L130.835 110.121C131.155 108.356 132.437 106.92 134.155 106.403C136.923 105.58 139.614 104.512 142.194 103.213L147.446 107.446C147.446 107.446 142.116 112.268 130.3 113.072Z" fill="#B6072C"/>
<path d="M108.776 108.063C108.776 108.063 123.038 118.242 142.613 110.053" stroke="white" stroke-width="2" stroke-linecap="round" stroke-linejoin="round"/>
<path d="M272.874 100.136L250.797 65.5726H308.34L286.264 100.136C284.804 102.421 282.28 103.804 279.569 103.804C276.858 103.804 274.333 102.421 272.874 100.136Z" fill="#F01543"/>
<ellipse cx="279.57" cy="48.182" rx="33.6123" ry="33.6123" fill="#F01543"/>
<circle cx="279.57" cy="48.182" r="12.6502" fill="white"/>
</svg>
