<svg width="20" height="20" viewBox="0 0 20 20" fill="none" xmlns="http://www.w3.org/2000/svg">
<path d="M14.1667 14.1667C15.0871 14.1667 15.8333 13.4205 15.8333 12.5C15.8333 11.5795 15.0871 10.8333 14.1667 10.8333C13.2462 10.8333 12.5 11.5795 12.5 12.5M4.16666 6.87887C5.22148 7.04222 6.39815 7.31381 7.5 7.7399M10 5.04447V17.5C9.80037 17.5 9.60075 17.4404 9.43069 17.3212C7.66094 16.0811 5.17725 15.5192 3.32861 15.3103C2.41368 15.2069 1.66666 14.4426 1.66666 13.5V4.11265C1.66666 3.17002 2.41368 2.40601 3.32861 2.50939C5.17725 2.71829 7.66094 3.28027 9.43069 4.52037C9.77082 4.75871 10.2292 4.75871 10.5693 4.52037C12.3391 3.28027 14.8227 2.71829 16.6714 2.50939C17.5863 2.40601 18.3333 3.17002 18.3333 4.11265V11.6667M4.16666 10.2122C4.69957 10.2947 5.26358 10.4049 5.83333 10.5486" stroke="#4D5461" stroke-width="1.5" stroke-linecap="round" stroke-linejoin="round"/>
<path d="M15 16.6668C15 17.1271 14.6269 17.5002 14.1667 17.5002C13.7064 17.5002 13.3333 17.1271 13.3333 16.6668C13.3333 16.2066 13.7064 15.8335 14.1667 15.8335C14.6269 15.8335 15 16.2066 15 16.6668Z" fill="#4D5461"/>
</svg>
