<svg width="20" height="20" viewBox="0 0 20 20" fill="none" xmlns="http://www.w3.org/2000/svg">
<path d="M15 14.1667H12.5M15 11.6667H12.5M5 17.5H15C16.8409 17.5 18.3333 16.0076 18.3333 14.1667V5.83333C18.3333 3.99238 16.8409 2.5 15 2.5H5C3.15905 2.5 1.66666 3.99238 1.66666 5.83333V14.1667C1.66666 16.0076 3.15905 17.5 5 17.5ZM6.66666 5.83333H8.33333C9.25381 5.83333 10 6.57953 10 7.5C10 8.42047 9.25381 9.16667 8.33333 9.16667H6.66666C5.74619 9.16667 5 8.42047 5 7.5C5 6.57953 5.74619 5.83333 6.66666 5.83333Z" stroke="#4D5461" stroke-width="1.5" stroke-linecap="round" stroke-linejoin="round"/>
</svg>
