<svg width="16" height="16" viewBox="0 0 16 16" fill="none" xmlns="http://www.w3.org/2000/svg">
<path d="M6.68855 2.18086C7.22501 1.05072 8.77501 1.05072 9.31147 2.18086L10.2386 4.13404C10.4516 4.58282 10.8634 4.89388 11.3398 4.96584L13.4129 5.27905C14.6125 5.46027 15.0914 6.99295 14.2234 7.87264L12.7233 9.39298C12.3786 9.74231 12.2213 10.2456 12.3027 10.7389L12.6568 12.8856C12.8617 14.1278 11.6078 15.075 10.5348 14.4885L8.68056 13.475C8.25451 13.2421 7.74551 13.2421 7.31946 13.475L5.46519 14.4885C4.39227 15.075 3.13829 14.1278 3.3432 12.8856L3.69734 10.7389C3.77871 10.2456 3.62142 9.74231 3.27673 9.39298L1.77659 7.87264C0.908588 6.99295 1.38756 5.46027 2.58712 5.27905L4.66026 4.96584C5.1366 4.89388 5.54839 4.58282 5.76142 4.13404L6.68855 2.18086Z" fill="#FFB23E"/>
</svg>
